<svg width="55" height="54" viewBox="0 0 55 54" fill="none" xmlns="http://www.w3.org/2000/svg">
  <path d="M25.3032 26.107C24.3874 26.813 24.2545 27.9649 24.2494 28.0135C24.2262 28.2281 24.3815 28.4202 24.5961 28.4442C24.6106 28.4457 24.6251 28.4465 24.6396 28.4465C24.8361 28.4465 25.0059 28.2983 25.0291 28.0982C25.0298 28.0896 25.1369 27.2209 25.7876 26.724C26.2041 26.4055 26.7689 26.2984 27.4658 26.4035C27.6796 26.4361 27.88 26.2886 27.9121 26.0745C27.9447 25.8603 27.7976 25.6603 27.5831 25.6278C26.663 25.4889 25.8962 25.6497 25.3032 26.107Z" fill="black" />
  <path d="M27.6685 23.8825C26.3076 23.622 25.1584 23.8111 24.2544 24.4445C22.8781 25.4081 22.6001 27.0432 22.5891 27.1127C22.5546 27.326 22.6993 27.5264 22.9126 27.5617C22.9342 27.5653 22.9554 27.5668 22.9766 27.5668C23.1648 27.5668 23.3311 27.4303 23.3629 27.2389C23.3652 27.2252 23.6061 25.8513 24.7105 25.0826C25.4337 24.5794 26.3782 24.4347 27.5214 24.6531C27.7328 24.6928 27.9395 24.5543 27.9803 24.3413C28.0211 24.1284 27.8815 23.9232 27.6685 23.8825Z" fill="black" />
  <path d="M37.8112 33.1254C38.8266 33.1894 39.8953 33.1596 40.9915 32.9882C39.7196 30.1357 38.9948 27.4777 39.3639 26.7654C39.7333 26.0532 43.4511 26.8568 44.672 25.1994C45.061 24.6715 45.2426 23.8655 45.2866 23.0089L44.7951 22.9093L44.4269 23.9326L43.2816 23.4741L42.7 25.0115L41.1476 24.4589L40.5742 25.0045L40.0334 24.4362L40.9562 23.5584L42.2391 24.0149L42.8318 22.4489L43.9648 22.9022L44.2872 22.0057L45.2905 22.2092C45.2273 20.6224 44.7728 19.0967 44.348 19.019C43.6193 18.8857 43.4299 19.0394 41.9069 19.9772C40.384 20.9149 39.1109 19.5556 37.7947 18.9924C37.4319 18.8374 36.9769 18.7837 36.5086 18.7849C36.4267 16.8258 36.784 15.0997 36.784 15.0997C36.784 15.0997 34.3441 15.9598 33.6561 18.308C32.5999 16.7764 32.0054 15.2656 32.0054 15.2656C32.0054 15.2656 29.8055 18.144 31.7893 20.9687C31.6281 22.1865 31.2127 25.1017 30.6021 27.7318C31.803 29.5654 35.0798 31.6456 37.8112 33.1254ZM38.3332 21.1707C38.5885 21.5848 38.4595 22.1276 38.0449 22.383C37.6303 22.6383 37.0879 22.5093 36.8326 22.0947C36.5773 21.6801 38.0782 20.7565 38.3332 21.1707Z" fill="black" />
  <path d="M11.3711 32.0222C10.8471 32.3391 10.4773 32.8933 10.4271 33.5502L9.07592 51.2311C9.00219 52.1991 9.64697 53.0753 10.5934 53.2918C10.74 53.3255 10.8867 53.3416 11.0318 53.3416C11.8233 53.3416 12.5567 52.8604 12.8564 52.0971L17.4409 40.4197C21.4684 40.3581 29.1336 42.8321 31.2523 41.9724C31.5979 41.832 31.9763 41.6174 32.3634 41.3582L34.419 51.4253C34.5888 52.2556 35.3191 52.8372 36.1462 52.8372C36.2188 52.8372 36.2914 52.8329 36.3647 52.8235C37.2789 52.7105 37.9523 51.9136 37.9112 50.9935L37.1613 34.1224C34.6869 32.7874 31.5112 30.8181 29.938 28.8057C26.0156 31.3899 22.2693 31.033 18.9889 31.1295C18.1825 31.002 7.98599 29.2967 2.3206 23.8882C1.7723 23.3647 0.903171 23.3854 0.379971 23.9334C-0.143622 24.4817 -0.123619 25.3508 0.424682 25.8744C3.55094 28.859 7.77459 30.8005 11.3711 32.0222Z" fill="black" />
  <path d="M18.7519 12.2079C20.3246 13.6963 22.8061 13.6284 24.2949 12.0561C24.3251 12.0239 24.351 11.9894 24.38 11.9565L27.4718 16.0942L27.9601 15.7675L25.5876 12.2263L23.6501 9.33459L22.8583 9.92015L23.9576 11.3913C22.7065 12.4836 20.8067 12.4663 19.5763 11.3015C18.3201 10.1119 18.2224 8.16151 19.3159 6.85076C19.3445 6.87939 19.3696 6.90998 19.399 6.93783C20.0093 7.51594 20.7533 7.86382 21.5252 7.98698C21.1475 7.83402 20.7902 7.61242 20.4764 7.31552C19.1296 6.04086 19.0715 3.91629 20.3458 2.56946C21.6205 1.22302 23.7458 1.16498 25.0923 2.43964C25.7308 3.04442 26.0759 3.84059 26.13 4.65442C26.2006 4.20927 26.1928 3.75588 26.114 3.31269C27.0102 3.23464 27.9338 3.52212 28.6386 4.18926C29.9458 5.42628 30.0023 7.48966 28.7649 8.79648C28.335 9.25066 27.8044 9.5503 27.2416 9.70052L26.6481 7.93403L25.7155 8.2525L26.9548 11.3972L28.555 15.4569L29.1026 15.2408L27.5561 10.6363C28.3742 10.4798 29.1535 10.0786 29.7701 9.42754C31.333 7.77636 31.262 5.17056 29.6109 3.60723C28.5856 2.63653 27.1921 2.29727 25.9084 2.57417C25.6998 2.03253 25.3751 1.52659 24.9252 1.10066C23.3132 -0.425411 20.7698 -0.355991 19.2441 1.25558C17.8926 2.68281 17.7949 4.83875 18.9084 6.37384C18.8021 6.46444 18.699 6.56092 18.6009 6.66446C17.1117 8.23759 17.1796 10.7187 18.7519 12.2079Z" fill="black" />
  <path d="M37.2234 13.3544C37.2677 13.5996 37.5003 13.7623 37.7482 13.7172C37.9929 13.6725 38.1553 13.4376 38.1106 13.1925L37.4866 9.77872L40.3791 12.574C40.4924 12.6834 40.6544 12.7253 40.807 12.6857C40.9596 12.6457 41.08 12.5292 41.1251 12.3779L41.9989 9.43632L43.5042 12.7124C43.5681 12.8512 43.6975 12.9485 43.8489 12.9705C44.0023 12.9917 44.1525 12.9364 44.2529 12.8214L47.387 9.24689L46.9838 13.8298C46.9709 13.9769 47.0305 14.1212 47.1438 14.2157C47.2572 14.3102 47.4086 14.3432 47.5521 14.3048L51.5953 13.1976L48.9872 16.9596C48.8997 17.0855 48.8825 17.2475 48.9413 17.389C49.0001 17.5306 49.1268 17.633 49.2774 17.6601L53.1697 18.3656L48.6738 20.702C48.5507 20.7663 48.4636 20.8832 48.4381 21.0201C48.413 21.1566 48.4518 21.2974 48.5444 21.4013L50.4991 23.6078L47.6109 23.3996C47.3548 23.3804 47.1462 23.5686 47.1285 23.8169C47.1109 24.0651 47.298 24.2812 47.5458 24.2989L51.5385 24.5868C51.5495 24.5876 51.5604 24.588 51.571 24.588C51.742 24.588 51.8989 24.4915 51.9754 24.3365C52.0566 24.1722 52.0303 23.9749 51.9083 23.8377L49.6026 21.2354L54.7569 18.557C54.9283 18.468 55.024 18.2801 54.9946 18.0895C54.966 17.8989 54.8193 17.7475 54.629 17.7134L50.1273 16.8972L53.0438 12.6912C53.1516 12.5355 53.1504 12.3284 53.041 12.1735C52.932 12.019 52.7378 11.95 52.5539 11.999L47.9388 13.2627L48.4063 7.95144C48.4236 7.75691 48.3138 7.57375 48.1345 7.49688C47.9545 7.42 47.7467 7.46746 47.6184 7.61414L44.0333 11.7029L42.3178 7.96909C42.2393 7.79848 42.0648 7.69258 41.8761 7.70749C41.6883 7.72082 41.529 7.84868 41.4757 8.0287L40.4721 11.4075L37.1042 8.15303C36.9634 8.01694 36.75 7.98752 36.5779 8.07969C36.4053 8.17225 36.3119 8.36561 36.3472 8.55818L37.2234 13.3544Z" fill="black" />
</svg>