<svg width="36" height="36" viewBox="0 0 36 36" fill="none" xmlns="http://www.w3.org/2000/svg">
  <path d="M4.30541 0.0822296C2.26527 0.469154 0.626114 1.88319 0.21105 3.64193C0.0633149 4.28212 0.0773849 5.25295 0.246225 5.92831C0.415064 6.5896 0.893443 7.60263 1.32961 8.18654L1.63915 8.60864L1.66729 9.93825C1.69543 11.1553 1.7095 11.3101 1.87834 11.7814C2.2512 12.8226 2.95469 13.716 3.86924 14.314L4.3828 14.6517L3.29237 15.2426C1.94869 15.9743 1.54066 16.326 1.18188 17.0577C0.921583 17.5782 0.914548 17.6134 0.914548 18.3802V19.1611L1.2874 19.9068L1.65322 20.6455V24.7891V28.9257L1.33665 29.0945C0.914548 29.3196 0.422099 29.8613 0.189945 30.3538C0.021105 30.7055 0 30.8392 0 31.4935C0 32.1055 0.0351749 32.3025 0.16884 32.6542C0.400994 33.2311 1.04118 33.8713 1.61805 34.1034C2.03311 34.2723 2.07532 34.2723 5.00891 34.3075L7.97768 34.3426L7.62593 34.7929C7.22493 35.3064 7.18272 35.5526 7.45709 35.82L7.62593 35.9958H9.53944H11.4459L11.7062 35.7356C11.8469 35.5878 12.3253 35.0813 12.7615 34.6029L13.5635 33.7447H14.2247H14.879V34.624C14.879 35.5808 14.9353 35.8059 15.2237 35.9255C15.3574 35.9747 17.5171 35.9958 22.6175 35.9818L29.8283 35.9607L30.3911 35.7707C31.158 35.5104 31.763 35.1376 32.3187 34.5818C33.17 33.7306 33.6413 32.6753 33.7117 31.4372L33.7539 30.7829L34.1056 30.6C34.5699 30.3679 35.2101 29.7558 35.4423 29.3267C35.6674 28.9116 35.8433 28.2152 35.8433 27.7227C35.8433 27.2725 35.6252 26.4072 35.393 25.9499C35.2945 25.7529 35.0483 25.3801 34.8513 25.1198C34.1549 24.1982 34.0423 23.8042 34.2956 23.2062C34.4714 22.7982 35.1046 22.158 35.5619 21.9259C36.0191 21.6937 36.1247 21.2857 35.8081 20.9761C35.5478 20.7088 35.3016 20.751 34.6966 21.152C34.0282 21.5952 33.5639 22.1088 33.2825 22.6997C33.0996 23.0937 33.0644 23.2344 33.0644 23.7198C33.0715 24.4022 33.2544 24.8595 33.8383 25.6263C34.0493 25.9006 34.3237 26.3438 34.4503 26.6112C34.6544 27.0403 34.6825 27.1669 34.6825 27.6946C34.6825 28.2081 34.6544 28.3488 34.4855 28.6935C34.373 28.9187 34.1689 29.193 34.0282 29.3126L33.7679 29.5237L33.7257 28.1729C33.6835 26.6393 33.6061 26.2946 33.0926 25.4293C32.7479 24.8454 31.7841 23.8183 31.0243 23.2273C29.3851 21.947 27.6405 20.9832 22.3502 18.4365L21.1261 17.8526L21.2738 17.6486C21.4919 17.3391 21.9773 16.3049 22.0265 16.0376C22.0547 15.8758 22.0336 15.7492 21.9562 15.6296C21.8014 15.3974 18.5583 13.7653 18.2558 13.7653C17.9885 13.7653 17.8478 13.906 17.5171 14.4969C17.3764 14.7502 17.2498 14.9612 17.2357 14.9612C17.2287 14.9612 17.1091 14.919 16.9825 14.8627C16.7503 14.7643 16.7503 14.7643 16.2016 12.8437C15.6247 10.7965 15.5614 10.6699 15.1604 10.6699C15.0549 10.6699 14.9001 10.7262 14.8227 10.7895C14.7242 10.8809 12.3183 13.7512 12.1705 13.9623C12.1565 13.9763 12.0087 13.9482 11.8328 13.8989L11.5092 13.8216L11.8328 13.4276C12.0158 13.2095 12.2761 12.7733 12.4238 12.4638C12.8177 11.6337 12.9092 11.0638 12.9092 9.43173V8.04584L13.275 7.476C13.9645 6.39965 14.3162 5.33737 14.3162 4.33136C14.3162 2.34046 13.0007 0.813869 10.7284 0.173687C10.2359 0.0329857 10.0108 0.0189171 7.52744 0.00484467C5.43101 -0.00922394 4.73455 0.00484467 4.30541 0.0822296ZM8.54751 6.7303C8.74449 6.7303 8.87815 6.63181 9.46206 6.06197L10.1445 5.38661L10.9675 6.69512L11.7836 8.01066V9.38952C11.7836 11.3804 11.5726 12.0699 10.7143 12.9633C10.2289 13.4698 9.67311 13.7864 8.99775 13.9482C8.24501 14.1241 6.00084 14.0608 5.42398 13.8497C4.15064 13.3854 3.16574 12.3372 2.89138 11.1623C2.814 10.8598 2.77882 10.3463 2.77882 9.63575V8.57346L3.7004 7.05391L4.62902 5.52731L5.00188 6.09715C5.59985 6.98355 5.87421 6.96948 6.5144 6.01976L6.94353 5.37958L7.63296 6.05494C8.21687 6.63181 8.35053 6.7303 8.54751 6.7303ZM15.3292 13.8708C15.5473 14.6447 15.7584 15.3482 15.7935 15.4396C15.8358 15.5381 16.0468 15.6788 16.3704 15.8265L16.8699 16.0587L16.8769 16.6918C16.884 17.2546 16.9051 17.3672 17.1161 17.7893C17.3694 18.3029 17.7352 18.6616 18.2558 18.8938L18.5653 19.0275L18.2839 19.0697C17.5945 19.1822 17.1865 19.2878 16.5674 19.5129C16.2016 19.6536 15.0971 19.9912 14.1122 20.2726L12.3253 20.7862L9.39874 20.3008C7.78773 20.0335 6.40184 19.8013 6.31742 19.7802C6.16265 19.745 6.15561 19.7239 6.15561 18.7672V17.7963L9.41985 16.4386L12.6841 15.0808L13.7886 13.7512C14.4006 13.0196 14.9001 12.4286 14.9142 12.4427C14.9212 12.4568 15.1112 13.097 15.3292 13.8708ZM20.5211 16.6848C20.1904 17.318 19.6347 17.8878 19.2829 17.9581C18.7693 18.0496 18.101 17.5642 18.0025 17.0225C17.9322 16.6567 18.0588 15.9813 18.291 15.4678L18.4809 15.0386L19.6347 15.6155L20.7814 16.1853L20.5211 16.6848ZM23.7572 20.3711C28.2877 22.6223 29.9339 23.6143 31.2072 24.8735C31.8544 25.5137 32.2765 26.1539 32.4665 26.7659C32.5931 27.174 32.6072 27.4202 32.6072 29.4111C32.6072 31.8452 32.565 32.1759 32.164 32.9286C31.8826 33.4773 31.2142 34.1456 30.6655 34.427C29.8143 34.8773 30.0113 34.8703 22.6738 34.8703H16.0046V34.3215C16.0046 33.6251 16.2227 33.1326 16.6589 32.8442L16.9473 32.6542L21.2668 32.6191L25.5863 32.5839L25.7199 32.415C25.7903 32.3236 25.8536 32.1618 25.8536 32.0422C25.8536 31.6412 26.0787 30.7477 26.3038 30.2623C26.5711 29.6855 27.0636 29.0242 27.4646 28.6935C28.0977 28.18 29.153 27.7368 30.1238 27.589L30.4193 27.5398L30.3841 27.2162C30.2927 26.3861 30.3067 26.4212 30.0183 26.4705C27.9781 26.8152 26.5782 27.6594 25.6496 29.0945C25.3189 29.6081 24.9883 30.4241 24.8616 31.0503L24.7702 31.4935H24.0034H23.2366L21.0628 29.8051C19.8668 28.8694 18.8889 28.0885 18.8889 28.0604C18.8889 28.0393 19.0367 27.8704 19.2126 27.6875L19.5291 27.3639L19.093 26.984L18.6638 26.6112L18.4035 26.8996C18.2628 27.0614 16.5393 28.9257 14.5624 31.0362L10.9816 34.8703H10.0108C9.47613 34.8703 9.03996 34.8562 9.03996 34.8421C9.03996 34.828 10.6721 32.7175 12.67 30.1498L16.3001 25.4785L16.2508 25.1971C16.1594 24.6203 16.1101 24.6695 16.9543 24.3811C17.3835 24.2404 18.0096 24.0364 18.3472 23.9308C19.4377 23.5932 20.2959 22.9459 20.6407 22.2073C20.7884 21.8907 20.8236 21.7148 20.8236 21.2505C20.8236 20.737 20.7954 20.6244 20.5773 20.1953C20.317 19.6817 19.8949 19.3159 19.4236 19.1963L19.2055 19.133L19.5643 19.0486C19.7542 18.9993 20.0075 18.9008 20.1271 18.8305C20.2397 18.7531 20.3382 18.6898 20.3452 18.6898C20.3522 18.6898 21.8858 19.4496 23.7572 20.3711ZM19.1914 20.3008C19.4095 20.3852 19.6417 20.7299 19.705 21.0676C19.7754 21.4334 19.6135 21.8555 19.2899 22.1651C19.0156 22.4254 18.101 22.9108 17.8759 22.9108C17.8056 22.9108 17.6649 22.5661 17.4046 21.7992C17.2076 21.1942 17.0247 20.6596 17.0106 20.6103C16.9895 20.5611 17.1302 20.4837 17.3764 20.4133C18.2065 20.1671 18.7553 20.139 19.1914 20.3008ZM15.09 25.1409C15.09 25.1831 14.0067 26.6041 13.064 27.8001L12.9022 27.9971L12.9233 26.8855L12.9444 25.774L13.8941 25.4363C14.8298 25.1057 15.09 25.0424 15.09 25.1409ZM18.3261 29.1016L18.502 29.2423H18.1714C17.8267 29.2423 17.7704 29.193 17.9181 29.0453C18.0377 28.9257 18.1221 28.9398 18.3261 29.1016Z" fill="black" />
  <path d="M4.99489 7.91919C4.67832 8.05989 4.50244 8.34129 4.50244 8.70711C4.50244 9.00258 4.53762 9.07996 4.7346 9.27694C4.93158 9.47392 5.00896 9.50909 5.31147 9.50909C5.61397 9.50909 5.69135 9.47392 5.88833 9.27694C6.08531 9.07996 6.12049 9.00258 6.12049 8.70007C6.12049 8.4046 6.08531 8.32018 5.9024 8.13024C5.67025 7.89808 5.25519 7.80663 4.99489 7.91919Z" fill="black" />
  <path d="M9.49733 7.91919C9.18076 8.05989 9.00488 8.34129 9.00488 8.70711C9.00488 9.00258 9.04006 9.07996 9.23704 9.27694C9.43402 9.47392 9.5114 9.50909 9.81391 9.50909C10.1164 9.50909 10.1938 9.47392 10.3908 9.27694C10.5878 9.07996 10.6229 9.00258 10.6229 8.70007C10.6229 8.4046 10.5878 8.32018 10.4048 8.13024C10.1727 7.89808 9.75763 7.80663 9.49733 7.91919Z" fill="black" />
  <path d="M6.08545 11.289C6.08545 11.5071 6.33167 12.084 6.51458 12.3091C6.85226 12.7171 7.22512 12.879 7.81606 12.886C8.24519 12.886 8.35775 12.8578 8.66025 12.6749C9.06125 12.4287 9.38486 11.9433 9.44114 11.5212L9.48335 11.2328H8.90648C8.39293 11.2328 8.33665 11.2468 8.33665 11.3664C8.33665 11.5353 8.02007 11.7956 7.81606 11.7956C7.61204 11.7956 7.35878 11.6056 7.2814 11.4016C7.21808 11.2398 7.18291 11.2328 6.64825 11.2328C6.33871 11.2328 6.08545 11.2609 6.08545 11.289Z" fill="black" />
  <path d="M11.7837 16.8607V17.4235H12.3465H12.9093V16.8607V16.2979H12.3465H11.7837V16.8607Z" fill="black" />
</svg>