<svg width="29" height="29" viewBox="0 0 29 29" fill="none" xmlns="http://www.w3.org/2000/svg">
  <path d="M27.1937 0H18.6938C17.8314 0 17.1539 0.677533 17.1539 1.53985C17.1539 2.40216 17.8314 3.0797 18.6938 3.0797H23.4365L17.7698 8.74634C13.3967 5.48186 7.17569 5.78983 3.23368 9.73184C-1.07789 14.0434 -1.07789 21.1267 3.23368 25.4383C7.54525 29.7499 14.6286 29.7499 18.9401 25.4383C22.8821 21.4963 23.2517 15.2137 19.9256 10.9021L25.5923 5.23548V10.0398C25.5923 10.9021 26.2698 11.5797 27.1321 11.5797C27.9944 11.5797 28.672 10.9021 28.672 10.0398V1.53985C28.7336 0.677533 28.056 0 27.1937 0ZM16.8459 23.2825C13.7046 26.4238 8.59235 26.4238 5.45106 23.2825C2.30977 20.1412 2.30977 15.0289 5.45106 11.8876C8.59235 8.74634 13.7046 8.74634 16.8459 11.8876C19.9872 15.0289 19.9872 20.1412 16.8459 23.2825Z" fill="black" />
</svg>