<svg width="70" height="70" viewBox="0 0 70 70" fill="none" xmlns="http://www.w3.org/2000/svg">
  <circle cx="35" cy="35" r="34" fill="white" stroke="#0C7203" stroke-width="2" />
  <path d="M41.1023 25.0037L39.5603 15.772C38.7792 15.8779 38.0409 16.1302 37.376 16.5011C35.77 17.3967 34.5898 18.9877 34.2699 20.9076L33.5848 25.0046C33.1987 27.326 34.9893 29.4379 37.3439 29.4379C37.3548 29.4379 37.365 29.4379 37.3759 29.4371C39.716 29.4186 41.4887 27.3146 41.1023 25.0037Z" fill="#0C7203" />
  <path d="M51.9795 23.1855C51.9795 23.8406 51.8599 24.4671 51.6403 25.0457C50.8886 27.0345 48.9652 28.4489 46.7119 28.4489H44.9939C44.4097 31.6923 44.0697 34.702 44.0697 38.3113C44.0697 41.6094 44.3769 44.9076 44.9939 48.1619H46.419C48.5847 48.1619 50.3397 49.9152 50.3397 52.079C50.3397 52.898 49.6723 53.5531 48.8642 53.5531H42.0815C42.0899 53.1083 42.0941 52.814 42.0941 52.75C42.0941 49.9472 39.8113 47.6667 37.0058 47.6667H36.5403C37.5596 46.2446 37.9788 44.5662 37.7566 42.7649C37.6707 42.0737 37.0402 41.5818 36.3483 41.6675C35.6564 41.7533 35.1648 42.3831 35.2499 43.0744C35.6497 46.3044 32.781 47.7298 32.6657 47.7861C31.4482 48.3552 31.8568 50.1895 33.2011 50.1895H37.0058C38.4191 50.1895 39.5688 51.3383 39.5688 52.7501C39.5688 52.8679 39.5647 53.1546 39.557 53.5532H24.1459C17.7689 53.5532 15.8313 48.7498 15.3523 44.5637C15.1857 43.1029 17.1427 42.4513 17.8902 43.7177C19.3935 46.2632 21.5382 48.7759 24.146 48.7759C24.5155 43.0509 26.3942 39.1405 32.9101 30.8279C33.9315 31.5447 35.1977 31.9606 36.5287 31.9606C36.5548 31.9606 36.5885 31.9606 36.628 31.9589C40.5014 31.9005 43.4154 28.4071 42.7777 24.5882L41.3012 15.75C42.7557 15.9031 44.0604 16.5565 45.0402 17.5353C46.1657 18.6597 46.8618 20.2128 46.8618 21.9291H50.7228C51.418 21.9291 51.9795 22.4917 51.9795 23.1855Z" fill="#0C7203" />
</svg>