<svg width="70" height="70" viewBox="0 0 70 70" fill="none" xmlns="http://www.w3.org/2000/svg">
  <circle cx="35" cy="35" r="34" fill="white" stroke="#0C7203" stroke-width="2" />
  <path d="M47 20.625V25H23V20.625C23 20.28 23.2688 20 23.6 20H46.4C46.7312 20 47 20.28 47 20.625Z" fill="#0C7203" />
  <path d="M47.201 26H22.799C21.1108 32.138 21.0058 38.2196 21 50.6C20.9988 51.926 22.0442 53 23.3333 53H46.6667C47.9558 53 49.0012 51.926 49 50.6C48.9942 38.2196 48.8892 32.138 47.201 26ZM38.5852 35.4056C38.8558 34.3232 39.69 33.6212 40.4483 33.8396C41.2067 34.058 41.6022 35.1116 41.3303 36.194C41.0597 37.2764 40.2255 37.9784 39.4672 37.76C38.71 37.5428 38.3145 36.4892 38.5852 35.4056ZM35.6685 32.5748C35.9392 31.4924 36.7733 30.7904 37.5317 31.0088C38.29 31.226 38.6855 32.2808 38.4137 33.3632C38.143 34.4456 37.3088 35.1476 36.5505 34.9292C35.7922 34.7108 35.3978 33.6584 35.6685 32.5748ZM39.0833 41.96C39.0833 42.806 38.5035 43.4 37.7218 43.4C37.009 43.4 36.2962 43.0052 35.7793 42.6284C35.3068 42.284 34.6932 42.284 34.2207 42.6284C33.7038 43.0052 32.991 43.4 32.2782 43.4C31.4965 43.4 30.9167 42.806 30.9167 41.96C30.9167 39.08 33.0598 36.2 35 36.2C36.9402 36.2 39.0833 39.08 39.0833 41.96ZM32.4683 31.0088C33.2267 30.7916 34.0608 31.4924 34.3315 32.5748C34.6022 33.6572 34.2067 34.712 33.4495 34.9292C32.6923 35.1464 31.857 34.4456 31.5863 33.3632C31.3145 32.2808 31.71 31.226 32.4683 31.0088ZM29.5517 33.8396C30.31 33.6224 31.1442 34.3232 31.4148 35.4056C31.6855 36.488 31.29 37.5428 30.5317 37.76C29.7733 37.9772 28.9392 37.2764 28.6685 36.194C28.3978 35.1116 28.7933 34.0568 29.5517 33.8396ZM43.1667 48.8C43.1667 49.1312 42.9053 49.4 42.5833 49.4H27.4167C27.0947 49.4 26.8333 49.1312 26.8333 48.8V47.6C26.8333 47.2688 27.0947 47 27.4167 47H42.5833C42.9053 47 43.1667 47.2688 43.1667 47.6V48.8Z" fill="#0C7203" />
</svg>