<svg width="70" height="70" viewBox="0 0 70 70" fill="none" xmlns="http://www.w3.org/2000/svg">
  <circle cx="35" cy="35" r="34" fill="white" stroke="#0C7203" stroke-width="2" />
  <path d="M36.8213 51.4336H44.944V55.6247H36.8213V51.4336Z" fill="#0C7203" />
  <path d="M50.5892 40.6691L53.5337 29.3251C53.5674 29.2072 53.5833 29.0847 53.5811 28.9619C53.5799 28.642 53.4724 28.3322 53.2765 28.0843C53.0806 27.8364 52.8082 27.6653 52.5048 27.5997C52.1493 27.5428 51.786 27.6262 51.4874 27.8333C51.1888 28.0405 50.9769 28.3561 50.8938 28.7174L48.8022 35.3743L48.8428 35.4372C49.2005 36.0781 49.2978 36.839 49.1136 37.5537C49.0229 37.9095 48.8643 38.2429 48.6469 38.5344C48.4295 38.8259 48.1578 39.0696 47.8478 39.2511L43.9692 41.5632C43.8145 41.6467 43.6345 41.6653 43.4668 41.6151C43.2991 41.5649 43.1567 41.4498 43.0694 41.2939C42.982 41.1379 42.9564 40.9531 42.9979 40.7781C43.0395 40.6031 43.1449 40.4514 43.2923 40.3548L47.1709 38.0427C47.3256 37.9519 47.4614 37.8305 47.5706 37.6854C47.6797 37.5404 47.7601 37.3746 47.8072 37.1975C47.8961 36.8387 47.8476 36.4585 47.6718 36.1357C47.5828 35.9762 47.4641 35.8364 47.3226 35.7244C47.1811 35.6124 47.0195 35.5303 46.8471 35.4829C46.6748 35.4355 46.4951 35.4238 46.3183 35.4483C46.1415 35.4728 45.9712 35.5331 45.8171 35.6258L39.8401 39.2372C39.1294 39.6712 38.54 40.2882 38.1295 41.0277C37.719 41.7672 37.5014 42.604 37.498 43.4562V50.0363H44.267V48.4996C44.2684 48.0068 44.3697 47.5198 44.5644 47.0699C44.759 46.62 45.0428 46.2171 45.3974 45.8871L49.98 41.689C50.2755 41.4179 50.4873 41.0633 50.5892 40.6691Z" fill="#0C7203" />
  <path d="M47.7059 34.3337L49.5944 28.3194C49.7477 27.7157 50.0879 27.1802 50.5632 26.7944C51.0385 26.4085 51.6229 26.1935 52.2275 26.1819V26.1679C52.2264 25.848 52.1188 25.5383 51.923 25.2903C51.7271 25.0424 51.4547 24.8714 51.1513 24.8058C50.7957 24.7489 50.4325 24.8323 50.1339 25.0394C49.8353 25.2465 49.6233 25.5622 49.5403 25.9234L46.7988 34.0682C47.1134 34.104 47.4199 34.1937 47.7059 34.3337Z" fill="#0C7203" />
  <path d="M18.9919 40.6622C19.092 41.0592 19.304 41.4166 19.6011 41.6891L24.1769 45.8872C24.5336 46.2158 24.8192 46.6183 25.0152 47.0684C25.2111 47.5186 25.313 48.0062 25.3141 48.4997V50.0364H32.0831V43.4563C32.0797 42.6041 31.8621 41.7673 31.4516 41.0278C31.0411 40.2883 30.4517 39.6713 29.741 39.2372L23.7573 35.6189C23.603 35.5276 23.4329 35.4686 23.2566 35.4452C23.0802 35.4217 22.9012 35.4344 22.7296 35.4824C22.558 35.5304 22.3972 35.6128 22.2565 35.7249C22.1157 35.837 21.9978 35.9766 21.9093 36.1358C21.7335 36.4586 21.685 36.8388 21.774 37.1976C21.821 37.3747 21.9014 37.5405 22.0106 37.6855C22.1197 37.8306 22.2556 37.952 22.4102 38.0428L26.2889 40.3549C26.4362 40.4515 26.5416 40.6032 26.5832 40.7782C26.6247 40.9532 26.5991 41.138 26.5117 41.2939C26.4244 41.4499 26.282 41.565 26.1143 41.6152C25.9466 41.6654 25.7667 41.6468 25.612 41.5633L21.7334 39.2512C21.4233 39.0697 21.1516 38.826 20.9342 38.5345C20.7169 38.243 20.5582 37.9095 20.4676 37.5538C20.2833 36.8391 20.3806 36.0782 20.7383 35.4373L20.7789 35.3744L18.7009 28.7524C18.6204 28.3831 18.4075 28.059 18.1048 27.8451C17.8022 27.6313 17.4323 27.5437 17.0695 27.5998C16.7674 27.6668 16.4965 27.8385 16.302 28.0862C16.1074 28.334 16.0009 28.643 16.0001 28.962C15.999 29.0843 16.0127 29.2063 16.0407 29.3252L18.9919 40.6622Z" fill="#0C7203" />
  <path d="M24.6372 51.4336H32.7599V55.6247H24.6372V51.4336Z" fill="#0C7203" />
  <path d="M18.423 24.8059C18.1209 24.8729 17.85 25.0446 17.6555 25.2923C17.4609 25.5401 17.3544 25.8491 17.3535 26.1681V26.182C17.9635 26.1983 18.5517 26.4191 19.0292 26.8111C19.5067 27.203 19.8476 27.7448 20.0002 28.3544L21.8752 34.3338C22.1611 34.1938 22.4677 34.1041 22.7822 34.0684L20.0611 25.9725C19.9811 25.6006 19.7677 25.2737 19.4639 25.0574C19.1601 24.841 18.7883 24.7512 18.423 24.8059Z" fill="#0C7203" />
  <path d="M36.3475 26.4264V20H33.2338V26.4264H27.0063V29.6396H33.2338V36.066H36.3475V29.6396H42.5749V26.4264H36.3475Z" fill="#0C7203" />
</svg>