<svg width="70" height="70" viewBox="0 0 70 70" fill="none" xmlns="http://www.w3.org/2000/svg">
  <circle cx="35" cy="35" r="34" fill="white" stroke="#0C7203" stroke-width="2" />
  <path d="M34.7775 47.5353C34.194 47.386 33.6688 47.0696 33.2683 46.6262L27.0982 39.7979C26.6152 39.2657 26.0237 38.8395 25.3621 38.5471C24.7006 38.2547 23.9838 38.1027 23.2586 38.101H21V28L30.6709 28C31.9235 28.005 33.1533 28.3297 34.2402 28.9423C35.3271 29.5548 36.2338 30.4344 36.8718 31.4949L42.1898 40.4242C42.324 40.6543 42.4107 40.9082 42.4452 41.1714C42.4796 41.4345 42.461 41.7017 42.3904 41.9578C42.3199 42.2139 42.1988 42.4537 42.034 42.6638C41.8692 42.8738 41.664 43.0498 41.4301 43.1818C40.9557 43.4441 40.3968 43.5165 39.8696 43.3838C39.6093 43.3136 39.3656 43.1936 39.1524 43.0307C38.9393 42.8678 38.7608 42.6651 38.6274 42.4343L35.2292 36.6464C35.0871 36.4266 34.8642 36.2692 34.6071 36.2072C34.3499 36.1453 34.0783 36.1834 33.849 36.3138C33.6198 36.4442 33.4506 36.6567 33.3768 36.9069C33.303 37.1571 33.3304 37.4257 33.4531 37.6565L36.8513 43.4444C37.1181 43.907 37.4762 44.3125 37.9047 44.6369C38.3331 44.9612 38.8232 45.198 39.346 45.3333C40.3965 45.6082 41.5148 45.463 42.4567 44.9292L42.5491 44.8686L52.2817 47.9696C52.8244 48.0897 53.3008 48.4075 53.6151 48.8591C53.9294 49.3107 54.0582 49.8627 53.9756 50.404C53.8772 50.8548 53.6249 51.259 53.2607 51.5494C52.8966 51.8397 52.4424 51.9987 51.9737 51.9999C51.7939 52.0015 51.6145 51.9811 51.4398 51.9393L34.7775 47.5353Z" fill="#0C7203" />
  <path d="M18 38V29H12V38H18Z" fill="#0C7203" />
  <path d="M57.977 48.4239C57.8788 48.8692 57.627 49.2683 57.2635 49.5551C56.9 49.8418 56.4467 49.9988 55.9788 50H55.9584C55.9345 49.1011 55.6106 48.2343 55.0356 47.5306C54.4606 46.8269 53.6658 46.3246 52.7715 46.0998L44 43.3367C44.2053 42.9153 44.3369 42.4635 44.3894 42L56.2658 46.01C56.8113 46.1279 57.2908 46.4423 57.6082 46.89C57.9255 47.3377 58.0573 47.8856 57.977 48.4239Z" fill="#0C7203" />
  <path d="M51.6 29.4V23H48.4V29.4H42V32.6H48.4V39H51.6V32.6H58V29.4H51.6Z" fill="#0C7203" />
</svg>