<svg width="49" height="67" viewBox="0 0 49 67" fill="none" xmlns="http://www.w3.org/2000/svg">
  <path d="M49 6.3773V64.6972C49 65.4305 48.3781 66.0257 47.6119 66.0257H1.3881C0.62187 66.0257 0 65.4305 0 64.6972V6.3773C0 5.64398 0.62187 5.04883 1.3881 5.04883H47.6119C48.3781 5.04883 49 5.64398 49 6.3773Z" fill="#0C7203" />
  <path d="M2.2207 11.6038V62.9586C2.2207 63.4781 2.66073 63.8993 3.20362 63.8993H31.2123C31.5805 63.8993 31.9336 63.7592 32.1939 63.5102L42.8921 53.2715V10.8932H4.98664L4.7526 9.27637L2.83841 10.4988C2.45238 10.7453 2.2207 11.1599 2.2207 11.6038Z" fill="black" />
  <path d="M44.8364 10.3617V51.4114L36.5078 54.3341L33.7316 62.0392H5.55314C4.78649 62.0392 4.16504 61.4445 4.16504 60.7107V10.3617C4.16504 9.62796 4.78649 9.0332 5.55314 9.0332H43.4483C44.215 9.0332 44.8364 9.62796 44.8364 10.3617Z" fill="#F5F5F5" />
  <path d="M44.8363 51.4111L33.7314 62.0389V52.7396C33.7314 52.0059 34.3529 51.4111 35.1195 51.4111H44.8363Z" fill="#E6E6E6" />
  <path d="M38.469 9.0332V11.6144C38.469 13.4451 36.9116 14.9356 34.9988 14.9356H13.9996C12.0867 14.9356 10.5293 13.4451 10.5293 11.6144V9.0332H38.469Z" fill="#E6E6E6" />
  <path d="M10.5293 5.04883H38.469V9.03424H10.5293V5.04883Z" fill="black" />
  <path d="M36.3872 5.04538V11.6143C36.3872 12.348 35.7657 12.9427 34.9991 12.9427H14.0004C13.2338 12.9427 12.6123 12.348 12.6123 11.6143V5.04538L20.3172 5.04551C20.2148 4.62425 20.18 4.17815 20.2244 3.71824C20.4162 1.73284 22.1166 0.147305 24.195 0.0100737C26.7045 -0.155587 28.7938 1.7436 28.7938 4.10974C28.7938 4.43162 28.7551 4.74501 28.6819 5.04551L36.3872 5.04538Z" fill="#50758D" />
  <path d="M37.7559 23.5972H23.0421C22.467 23.5972 22.001 23.1512 22.001 22.6008C22.001 22.0505 22.467 21.6045 23.0421 21.6045H37.7559C38.331 21.6045 38.797 22.0505 38.797 22.6008C38.797 23.1512 38.331 23.5972 37.7559 23.5972Z" fill="#50758D" />
  <path d="M37.7559 35.271H23.0421C22.467 35.271 22.001 34.8251 22.001 34.2747C22.001 33.7243 22.467 33.2783 23.0421 33.2783H37.7559C38.331 33.2783 38.797 33.7243 38.797 34.2747C38.797 34.8251 38.331 35.271 37.7559 35.271Z" fill="#50758D" />
  <path d="M37.7564 47.3765H35.3272C34.7521 47.3765 34.2861 46.9305 34.2861 46.3801C34.2861 45.8298 34.7521 45.3838 35.3272 45.3838H37.7564C38.3315 45.3838 38.7975 45.8298 38.7975 46.3801C38.7975 46.9305 38.3315 47.3765 37.7564 47.3765Z" fill="#50758D" />
  <path d="M30.4684 47.3765H23.0421C22.467 47.3765 22.001 46.9305 22.001 46.3801C22.001 45.8298 22.467 45.3838 23.0421 45.3838H30.4684C31.0435 45.3838 31.5095 45.8298 31.5095 46.3801C31.5095 46.9305 31.0435 47.3765 30.4684 47.3765Z" fill="#50758D" />
  <path d="M14.2897 27.5965H13.4254C13.392 27.5965 13.3612 27.5835 13.3377 27.5622C13.3217 27.5468 12.9315 27.1632 12.9315 26.4126C12.9315 26.3463 12.9315 26.2848 12.9339 26.2268C12.8241 26.3819 12.6882 26.5287 12.5265 26.6305C12.4697 26.666 12.3931 26.6506 12.3561 26.5961C12.319 26.5417 12.3351 26.4683 12.3919 26.4328C12.729 26.222 12.9438 25.7426 13.0241 25.533C13.0451 25.4596 13.0636 25.4229 13.0685 25.4135C13.0969 25.359 13.1648 25.333 13.2241 25.3566C13.2834 25.3791 13.3155 25.4419 13.297 25.5011C13.2945 25.5082 13.2834 25.5461 13.2612 25.6041C13.2278 25.7213 13.1797 25.9722 13.1797 26.4138C13.1797 26.9418 13.4007 27.2603 13.4834 27.3609H14.1675C14.1675 27.2887 13.9477 27.2425 13.797 27.2425C13.7353 27.2425 13.6834 27.1987 13.6748 27.1407C13.6489 26.9643 13.4328 25.4028 13.9699 25.0169C14.407 24.702 14.4144 24.052 14.4144 24.0461C14.4144 23.53 14.2144 23.0623 14.0674 22.7202C13.9822 22.5201 13.9205 22.3757 13.9205 22.2703C13.9205 21.9898 14.244 21.9152 14.4144 21.9152C14.8342 21.9152 14.9811 21.6666 15.0256 21.5589C15.0293 21.5482 15.0318 21.5364 15.0318 21.5233C15.0318 21.4736 14.9935 21.431 14.9429 21.4239C14.7552 21.3978 14.4971 21.3327 14.3267 21.1694C14.3094 21.1528 14.2983 21.1315 14.2934 21.109C14.2885 21.0889 14.1761 20.6118 13.5501 20.6118C12.871 20.6118 12.4388 21.1563 12.4388 21.4405C12.4388 21.5813 12.4598 21.6074 12.461 21.6086C12.4647 21.6109 12.4808 21.6169 12.4931 21.6216C12.5327 21.6358 12.5919 21.6571 12.65 21.7128C12.708 21.7684 12.7389 21.8311 12.7697 21.888C12.8302 22.004 12.8537 22.0324 12.9339 22.0324C13.0241 22.0324 13.1488 22.0134 13.2303 21.9211C13.3266 21.8122 13.3538 21.6109 13.3068 21.341C13.2957 21.2771 13.3414 21.2155 13.4081 21.2049C13.476 21.193 13.539 21.238 13.5501 21.302C13.6106 21.6476 13.5661 21.9069 13.4192 22.0738C13.3068 22.2017 13.1389 22.2692 12.9352 22.2692C12.6944 22.2692 12.608 22.1034 12.5499 21.9933C12.5265 21.9483 12.5043 21.9057 12.4771 21.8797C12.4573 21.8607 12.4376 21.8536 12.4092 21.843C12.2697 21.7933 12.1943 21.7139 12.1943 21.4405C12.1943 21.0166 12.7364 20.375 13.5526 20.375C14.1835 20.375 14.4589 20.7787 14.528 21.0226C14.6268 21.1031 14.7861 21.1611 14.9811 21.1895C15.1515 21.2132 15.2812 21.3564 15.2812 21.5233C15.2812 21.566 15.2738 21.6062 15.2577 21.6441C15.2096 21.7625 15.0058 22.1508 14.4169 22.1508C14.4144 22.1508 14.1699 22.1579 14.1699 22.2692C14.1699 22.3284 14.2329 22.474 14.2983 22.6291C14.444 22.9688 14.6638 23.4814 14.6638 24.0449C14.6638 24.0769 14.6576 24.8192 14.1205 25.2051C13.8193 25.4218 13.8291 26.3866 13.9082 27.0093C14.1625 27.0306 14.4169 27.1312 14.4169 27.3597V27.4781C14.4169 27.5432 14.3613 27.5965 14.2934 27.5965H14.2897Z" fill="#FAD207" />
  <path d="M9.83042 26.4068H9.82795C9.7601 26.4056 9.70582 26.351 9.70705 26.2857C9.71692 25.7727 9.78107 25.4379 10.0993 25.0294C10.2684 24.8121 10.4633 24.7064 10.6693 24.5948C10.958 24.4381 11.2849 24.26 11.7031 23.7233C12.1028 23.2103 12.3162 22.7342 12.4247 22.4254C12.4469 22.3637 12.516 22.3304 12.5814 22.3506C12.6456 22.372 12.6801 22.4397 12.6591 22.5014C12.5444 22.8268 12.3199 23.3279 11.9005 23.8658C11.4514 24.4417 11.085 24.6411 10.7914 24.8014C10.5928 24.9095 10.4349 24.995 10.2967 25.1719C10.0155 25.5329 9.96365 25.8095 9.95378 26.2904C9.95254 26.3558 9.89703 26.4068 9.83042 26.4068Z" fill="#FAD207" />
  <path d="M12.7979 27.5961H10.8212C10.5865 27.5961 9.8835 27.5961 9.72166 26.9514C8.80992 26.2983 8.72344 25.2991 9.10889 24.6794C9.38192 24.2417 9.89833 24.0371 10.2578 23.9943C10.3925 23.9776 10.5729 23.9764 10.6618 24.0621C10.6927 24.0918 10.7051 24.1334 10.6952 24.1739C10.6853 24.2143 10.6544 24.2464 10.6136 24.2595C10.6075 24.2619 9.92674 24.4903 9.70313 25.1362C9.49187 25.7452 9.88474 25.9415 9.88844 25.9439C9.94898 25.9736 9.97369 26.045 9.94404 26.1033C9.91439 26.1615 9.83903 26.1853 9.77849 26.1568C9.77231 26.1544 9.19167 25.863 9.46964 25.0612C9.60059 24.6842 9.85385 24.432 10.0824 24.2714C9.82544 24.3452 9.50917 24.5034 9.32262 24.8031C8.98782 25.3396 9.07924 26.2175 9.90574 26.786C9.93168 26.8039 9.94898 26.8301 9.95516 26.8598C10.0243 27.2047 10.2912 27.3582 10.8224 27.3582H12.6756C12.6743 27.3415 12.6558 27.2392 12.4285 27.2392C11.9862 27.2392 11.8305 26.9478 11.8243 26.9359C11.8046 26.8979 11.8071 26.8527 11.8318 26.817C11.8342 26.8134 12.0578 26.4815 12.0578 26.0497C12.0578 25.6548 11.6353 25.4443 11.6316 25.4419C11.5711 25.4122 11.5464 25.3408 11.5773 25.2825C11.6081 25.2242 11.6823 25.2004 11.7428 25.229C11.7663 25.2397 12.3049 25.5061 12.3049 26.0485C12.3049 26.4304 12.1579 26.7396 12.0813 26.8741C12.132 26.9252 12.2382 27.0002 12.4285 27.0002C12.8189 27.0002 12.9226 27.2333 12.9226 27.357V27.476C12.9226 27.5414 12.867 27.5949 12.7991 27.5949L12.7979 27.5961Z" fill="#FAD207" />
  <path d="M14.8677 37.7843H13.9108C13.8739 37.7843 13.8397 37.7699 13.8137 37.7463C13.796 37.7292 13.364 37.3046 13.364 36.4736C13.364 36.4002 13.364 36.332 13.3667 36.2678C13.245 36.4395 13.0947 36.602 12.9156 36.7148C12.8527 36.7541 12.7679 36.737 12.7269 36.6767C12.6859 36.6165 12.7037 36.5352 12.7666 36.4959C13.1398 36.2626 13.3776 35.7317 13.4665 35.4997C13.4897 35.4185 13.5102 35.3779 13.5157 35.3674C13.5472 35.3071 13.6223 35.2782 13.688 35.3045C13.7536 35.3294 13.7891 35.3988 13.7686 35.4644C13.7659 35.4722 13.7536 35.5142 13.729 35.5784C13.6921 35.7081 13.6387 35.986 13.6387 36.4749C13.6387 37.0595 13.8834 37.412 13.975 37.5235H14.7324C14.7324 37.4435 14.489 37.3924 14.3223 37.3924C14.2539 37.3924 14.1965 37.3439 14.1869 37.2797C14.1582 37.0844 13.919 35.3556 14.5136 34.9283C14.9976 34.5796 15.0058 33.8601 15.0058 33.8535C15.0058 33.2821 14.7843 32.7643 14.6216 32.3855C14.5273 32.164 14.459 32.0041 14.459 31.8875C14.459 31.5768 14.8171 31.4943 15.0058 31.4943C15.4706 31.4943 15.6332 31.219 15.6825 31.0998C15.6866 31.088 15.6893 31.0749 15.6893 31.0604C15.6893 31.0054 15.6469 30.9582 15.5909 30.9503C15.3831 30.9215 15.0974 30.8494 14.9087 30.6685C14.8896 30.6502 14.8773 30.6266 14.8718 30.6017C14.8663 30.5794 14.7419 30.0512 14.0489 30.0512C13.297 30.0512 12.8185 30.6541 12.8185 30.9687C12.8185 31.1247 12.8418 31.1535 12.8431 31.1548C12.8472 31.1574 12.865 31.164 12.8787 31.1692C12.9224 31.1849 12.988 31.2085 13.0523 31.2701C13.1165 31.3317 13.1507 31.4012 13.1849 31.4641C13.2519 31.5926 13.2778 31.624 13.3667 31.624C13.4665 31.624 13.6046 31.6031 13.6948 31.5008C13.8014 31.3802 13.8315 31.1574 13.7795 30.8586C13.7672 30.7878 13.8178 30.7197 13.8916 30.7079C13.9668 30.6948 14.0366 30.7446 14.0489 30.8153C14.1158 31.1981 14.0666 31.4851 13.9039 31.6699C13.7795 31.8115 13.5936 31.8862 13.3681 31.8862C13.1015 31.8862 13.0058 31.7027 12.9416 31.5808C12.9156 31.531 12.891 31.4838 12.8609 31.455C12.839 31.434 12.8172 31.4261 12.7857 31.4143C12.6312 31.3593 12.5479 31.2715 12.5479 30.9687C12.5479 30.4995 13.148 29.7891 14.0516 29.7891C14.7501 29.7891 15.055 30.236 15.1315 30.506C15.2409 30.5951 15.4173 30.6594 15.6332 30.6908C15.8219 30.717 15.9654 30.8756 15.9654 31.0604C15.9654 31.1076 15.9572 31.1522 15.9395 31.1941C15.8861 31.3252 15.6606 31.7551 15.0085 31.7551C15.0058 31.7551 14.7351 31.763 14.7351 31.8862C14.7351 31.9517 14.8048 32.1129 14.8773 32.2846C15.0386 32.6608 15.2819 33.2283 15.2819 33.8522C15.2819 33.8876 15.2751 34.7094 14.6804 35.1367C14.3469 35.3765 14.3578 36.4448 14.4453 37.1342C14.7269 37.1578 15.0085 37.2692 15.0085 37.5221V37.6532C15.0085 37.7253 14.947 37.7843 14.8718 37.7843H14.8677Z" fill="#FAD207" />
  <path d="M9.9325 36.4661H9.92977C9.85465 36.4647 9.79456 36.4043 9.79592 36.332C9.80685 35.764 9.87787 35.3933 10.2302 34.9411C10.4174 34.7005 10.6332 34.5835 10.8613 34.4599C11.1809 34.2864 11.5428 34.0892 12.0058 33.495C12.4483 32.9271 12.6846 32.3999 12.8048 32.0581C12.8294 31.9897 12.9059 31.9529 12.9783 31.9753C13.0493 31.9989 13.0875 32.0739 13.0643 32.1422C12.9373 32.5024 12.6887 33.0572 12.2243 33.6528C11.7272 34.2903 11.3215 34.5112 10.9965 34.6887C10.7766 34.8083 10.6017 34.903 10.4488 35.0988C10.1374 35.4985 10.08 35.8048 10.0691 36.3372C10.0677 36.4095 10.0063 36.4661 9.9325 36.4661Z" fill="#FAD207" />
  <path d="M13.2163 37.7847H11.0278C10.7679 37.7847 9.98967 37.7847 9.81049 37.0709C8.80107 36.3479 8.70532 35.2417 9.13207 34.5555C9.43435 34.0709 10.0061 33.8444 10.4041 33.797C10.5532 33.7785 10.7529 33.7772 10.8514 33.872C10.8856 33.905 10.8992 33.9511 10.8883 33.9958C10.8774 34.0406 10.8432 34.0762 10.798 34.0906C10.7912 34.0933 10.0375 34.3461 9.78998 35.0612C9.55608 35.7355 9.99104 35.9528 9.99514 35.9555C10.0622 35.9884 10.0895 36.0674 10.0567 36.1319C10.0239 36.1965 9.94043 36.2228 9.87341 36.1912C9.86657 36.1886 9.22371 35.8659 9.53146 34.9783C9.67645 34.5608 9.95685 34.2816 10.2099 34.1038C9.92539 34.1855 9.57523 34.3606 9.3687 34.6925C8.99803 35.2864 9.09924 36.2584 10.0143 36.8879C10.043 36.9076 10.0622 36.9366 10.069 36.9695C10.1456 37.3514 10.441 37.5213 11.0292 37.5213H13.0809C13.0795 37.5029 13.059 37.3896 12.8073 37.3896C12.3176 37.3896 12.1453 37.067 12.1385 37.0538C12.1166 37.0117 12.1193 36.9616 12.1467 36.9221C12.1494 36.9182 12.397 36.5507 12.397 36.0727C12.397 35.6354 11.9292 35.4023 11.9251 35.3997C11.8581 35.3668 11.8307 35.2878 11.8649 35.2232C11.8991 35.1587 11.9812 35.1324 12.0482 35.164C12.0742 35.1758 12.6705 35.4708 12.6705 36.0714C12.6705 36.4941 12.5078 36.8365 12.423 36.9853C12.479 37.042 12.5967 37.1249 12.8073 37.1249C13.2395 37.1249 13.3544 37.383 13.3544 37.52V37.6517C13.3544 37.7241 13.2929 37.7834 13.2176 37.7834L13.2163 37.7847Z" fill="#FAD207" />
  <path d="M15.1372 49.3897H14.1803C14.1434 49.3897 14.1092 49.3753 14.0833 49.3517C14.0655 49.3347 13.6335 48.91 13.6335 48.0791C13.6335 48.0057 13.6335 47.9375 13.6362 47.8733C13.5146 48.045 13.3642 48.2075 13.1851 48.3202C13.1222 48.3595 13.0375 48.3425 12.9965 48.2822C12.9555 48.2219 12.9732 48.1407 13.0361 48.1013C13.4093 47.868 13.6472 47.3372 13.736 47.1052C13.7593 47.024 13.7798 46.9833 13.7852 46.9728C13.8167 46.9125 13.8919 46.8837 13.9575 46.9099C14.0231 46.9348 14.0586 47.0043 14.0381 47.0698C14.0354 47.0777 14.0231 47.1196 13.9985 47.1839C13.9616 47.3136 13.9083 47.5915 13.9083 48.0804C13.9083 48.6649 14.153 49.0175 14.2446 49.1289H15.0019C15.0019 49.049 14.7586 48.9979 14.5918 48.9979C14.5234 48.9979 14.466 48.9494 14.4565 48.8851C14.4277 48.6898 14.1885 46.961 14.7832 46.5338C15.2671 46.1851 15.2753 45.4655 15.2753 45.459C15.2753 44.8875 15.0539 44.3698 14.8912 43.991C14.7968 43.7695 14.7285 43.6096 14.7285 43.4929C14.7285 43.1823 15.0867 43.0997 15.2753 43.0997C15.7401 43.0997 15.9028 42.8245 15.952 42.7052C15.9561 42.6934 15.9588 42.6803 15.9588 42.6659C15.9588 42.6109 15.9164 42.5637 15.8604 42.5558C15.6526 42.527 15.3669 42.4549 15.1783 42.274C15.1591 42.2557 15.1468 42.2321 15.1413 42.2072C15.1359 42.1849 15.0115 41.6567 14.3184 41.6567C13.5665 41.6567 13.0881 42.2596 13.0881 42.5742C13.0881 42.7301 13.1113 42.759 13.1127 42.7603C13.1168 42.7629 13.1345 42.7694 13.1482 42.7747C13.192 42.7904 13.2576 42.814 13.3218 42.8756C13.3861 42.9372 13.4202 43.0067 13.4544 43.0696C13.5214 43.198 13.5474 43.2295 13.6362 43.2295C13.736 43.2295 13.8741 43.2085 13.9643 43.1063C14.071 42.9857 14.101 42.7629 14.0491 42.4641C14.0368 42.3933 14.0874 42.3251 14.1612 42.3133C14.2364 42.3002 14.3061 42.35 14.3184 42.4208C14.3854 42.8035 14.3362 43.0906 14.1735 43.2754C14.0491 43.4169 13.8632 43.4916 13.6376 43.4916C13.371 43.4916 13.2753 43.3081 13.2111 43.1862C13.1851 43.1364 13.1605 43.0893 13.1304 43.0604C13.1086 43.0394 13.0867 43.0316 13.0552 43.0198C12.9008 42.9647 12.8174 42.8769 12.8174 42.5742C12.8174 42.1049 13.4175 41.3945 14.3211 41.3945C15.0197 41.3945 15.3245 41.8415 15.4011 42.1115C15.5104 42.2006 15.6868 42.2648 15.9028 42.2963C16.0914 42.3225 16.235 42.4811 16.235 42.6659C16.235 42.7131 16.2268 42.7577 16.209 42.7996C16.1557 42.9307 15.9301 43.3606 15.278 43.3606C15.2753 43.3606 15.0046 43.3684 15.0046 43.4916C15.0046 43.5572 15.0744 43.7184 15.1468 43.8901C15.3081 44.2663 15.5515 44.8338 15.5515 45.4577C15.5515 45.4931 15.5446 46.3149 14.95 46.7422C14.6164 46.982 14.6273 48.0502 14.7148 48.7396C14.9964 48.7632 15.278 48.8746 15.278 49.1276V49.2587C15.278 49.3308 15.2165 49.3897 15.1413 49.3897H15.1372Z" fill="#FAD207" />
  <path d="M10.2011 48.0715H10.1983C10.1232 48.0702 10.0631 48.0097 10.0645 47.9374C10.0754 47.3695 10.1464 46.9988 10.4988 46.5466C10.6859 46.306 10.9017 46.189 11.1298 46.0654C11.4494 45.8919 11.8113 45.6947 12.2744 45.1005C12.7169 44.5325 12.9532 44.0054 13.0733 43.6636C13.0979 43.5952 13.1744 43.5584 13.2468 43.5808C13.3178 43.6044 13.3561 43.6793 13.3329 43.7477C13.2058 44.1079 12.9573 44.6627 12.4929 45.2582C11.9957 45.8958 11.5901 46.1167 11.265 46.2941C11.0451 46.4138 10.8703 46.5084 10.7173 46.7043C10.4059 47.104 10.3486 47.4103 10.3376 47.9427C10.3363 48.015 10.2748 48.0715 10.2011 48.0715Z" fill="#FAD207" />
  <path d="M13.4858 49.3902H11.2974C11.0375 49.3902 10.2592 49.3902 10.08 48.6764C9.0706 47.9534 8.97485 46.8471 9.4016 46.161C9.70388 45.6764 10.2756 45.4498 10.6736 45.4024C10.8227 45.384 11.0224 45.3827 11.1209 45.4775C11.1551 45.5104 11.1688 45.5565 11.1578 45.6013C11.1469 45.6461 11.1127 45.6816 11.0676 45.6961C11.0607 45.6988 10.3071 45.9516 10.0595 46.6667C9.82562 47.341 10.2606 47.5583 10.2647 47.5609C10.3317 47.5939 10.3591 47.6729 10.3262 47.7374C10.2934 47.8019 10.21 47.8283 10.1429 47.7967C10.1361 47.794 9.49324 47.4714 9.801 46.5837C9.94598 46.1663 10.2264 45.8871 10.4794 45.7093C10.1949 45.7909 9.84476 45.9661 9.63823 46.298C9.26756 46.8919 9.36877 47.8638 10.2838 48.4933C10.3125 48.5131 10.3317 48.5421 10.3385 48.575C10.4151 48.9569 10.7106 49.1268 11.2987 49.1268H13.3504C13.349 49.1084 13.3285 48.9951 13.0768 48.9951C12.5872 48.9951 12.4148 48.6724 12.408 48.6593C12.3861 48.6171 12.3888 48.5671 12.4162 48.5276C12.4189 48.5236 12.6665 48.1562 12.6665 47.6781C12.6665 47.2409 12.1987 47.0078 12.1946 47.0052C12.1276 46.9723 12.1002 46.8932 12.1344 46.8287C12.1686 46.7642 12.2507 46.7378 12.3177 46.7694C12.3437 46.7813 12.9401 47.0763 12.9401 47.6768C12.9401 48.0996 12.7773 48.442 12.6925 48.5908C12.7486 48.6474 12.8662 48.7304 13.0768 48.7304C13.5091 48.7304 13.624 48.9885 13.624 49.1255V49.2572C13.624 49.3296 13.5624 49.3889 13.4872 49.3889L13.4858 49.3902Z" fill="#FAD207" />
</svg>