<svg width="74" height="85" viewBox="0 0 74 85" fill="none" xmlns="http://www.w3.org/2000/svg">
  <path d="M69.46 75.7031H3.65596C1.63694 75.7031 0 74.0082 0 71.9177V3.78541C0 1.69494 1.63694 0.000488281 3.65596 0.000488281H69.46C71.479 0.000488281 73.116 1.69494 73.116 3.78541V71.9182C73.116 74.0086 71.479 75.7031 69.46 75.7031Z" fill="#F1F2F2" />
  <path d="M69.46 0H69.047V67.7047C69.047 69.7952 67.4101 71.4896 65.3911 71.4896H0V71.9177C0 74.0081 1.63694 75.7026 3.65596 75.7026H69.46C71.479 75.7026 73.116 74.0081 73.116 71.9177V3.78534C73.116 1.69487 71.479 0 69.46 0Z" fill="#E6E7E8" />
  <path d="M70.82 0.270996C70.9884 0.706194 71.0816 1.18142 71.0816 1.67897V69.8117C71.0816 71.9022 69.4446 73.5966 67.4256 73.5966H1.62157C1.14102 73.5966 0.682042 73.5006 0.261719 73.3257C0.801263 74.719 2.11757 75.7031 3.65605 75.7031H69.4601C71.4791 75.7031 73.1161 74.0087 73.1161 71.9182V3.78544C73.1161 2.19252 72.1656 0.829634 70.82 0.270996Z" fill="#D1D3D4" />
  <path d="M69.46 0H3.65596C1.63694 0 0 1.69445 0 3.78492V17.769H73.1156V3.78534C73.116 1.69487 71.4791 0 69.46 0Z" fill="#FFA91A" />
  <path d="M67.2171 24.7053V34.829C67.2171 35.3253 66.8285 35.7276 66.3487 35.7276H56.571C56.0917 35.7276 55.7031 35.3253 55.7031 34.829V24.7053C55.7031 24.209 56.0917 23.8066 56.571 23.8066H66.3487C66.8285 23.8066 67.2171 24.209 67.2171 24.7053Z" fill="#D1D3D4" />
  <path d="M50.6161 24.7053V34.829C50.6161 35.3253 50.2275 35.7276 49.7482 35.7276H39.9704C39.4911 35.7276 39.1025 35.3253 39.1025 34.829V24.7053C39.1025 24.209 39.4911 23.8066 39.9704 23.8066H49.7482C50.2275 23.8066 50.6161 24.209 50.6161 24.7053Z" fill="#D1D3D4" />
  <path d="M34.0139 24.7053V34.829C34.0139 35.3253 33.6254 35.7276 33.1456 35.7276H23.3679C22.8886 35.7276 22.5 35.3253 22.5 34.829V24.7053C22.5 24.209 22.8886 23.8066 23.3679 23.8066H33.1456C33.6254 23.8066 34.0139 24.209 34.0139 24.7053Z" fill="#D1D3D4" />
  <path d="M17.4129 24.7053V34.829C17.4129 35.3253 17.0244 35.7276 16.545 35.7276H6.76732C6.288 35.7276 5.89941 35.3253 5.89941 34.829V24.7053C5.89941 24.209 6.288 23.8066 6.76732 23.8066H16.545C17.024 23.8066 17.4129 24.209 17.4129 24.7053Z" fill="#D1D3D4" />
  <path d="M50.6161 40.8205V50.9442C50.6161 51.4405 50.2275 51.8429 49.7482 51.8429H39.9704C39.4911 51.8429 39.1025 51.4405 39.1025 50.9442V40.8205C39.1025 40.3242 39.4911 39.9219 39.9704 39.9219H49.7482C50.2275 39.9219 50.6161 40.3242 50.6161 40.8205Z" fill="#D1D3D4" />
  <path d="M34.0139 40.8205V50.9442C34.0139 51.4405 33.6254 51.8429 33.1456 51.8429H23.3679C22.8886 51.8429 22.5 51.4405 22.5 50.9442V40.8205C22.5 40.3242 22.8886 39.9219 23.3679 39.9219H33.1456C33.6254 39.9219 34.0139 40.3242 34.0139 40.8205Z" fill="#D1D3D4" />
  <path d="M17.4129 40.8205V50.9442C17.4129 51.4405 17.0244 51.8429 16.545 51.8429H6.76732C6.288 51.8429 5.89941 51.4405 5.89941 50.9442V40.8205C5.89941 40.3242 6.288 39.9219 6.76732 39.9219H16.545C17.024 39.9219 17.4129 40.3242 17.4129 40.8205Z" fill="#D1D3D4" />
  <path d="M50.6161 56.9362V67.06C50.6161 67.5562 50.2275 67.9586 49.7482 67.9586H39.9704C39.4911 67.9586 39.1025 67.5562 39.1025 67.06V56.9362C39.1025 56.4399 39.4911 56.0376 39.9704 56.0376H49.7482C50.2275 56.0376 50.6161 56.4399 50.6161 56.9362Z" fill="#D1D3D4" />
  <path d="M34.0139 56.9362V67.06C34.0139 67.5562 33.6254 67.9586 33.1456 67.9586H23.3679C22.8886 67.9586 22.5 67.5562 22.5 67.06V56.9362C22.5 56.4399 22.8886 56.0376 23.3679 56.0376H33.1456C33.6254 56.0376 34.0139 56.4399 34.0139 56.9362Z" fill="#D1D3D4" />
  <path d="M17.4129 56.9362V67.06C17.4129 67.5562 17.0244 67.9586 16.545 67.9586H6.76732C6.288 67.9586 5.89941 67.5562 5.89941 67.06V56.9362C5.89941 56.4399 6.288 56.0376 6.76732 56.0376H16.545C17.024 56.0376 17.4129 56.4399 17.4129 56.9362Z" fill="#D1D3D4" />
  <path d="M66.3487 39.9219H56.571C56.0917 39.9219 55.7031 40.3242 55.7031 40.8205V50.9442C55.7031 51.4405 56.0917 51.8429 56.571 51.8429H66.3487C66.8281 51.8429 67.2171 51.4405 67.2171 50.9442V40.8205C67.2171 40.3242 66.8285 39.9219 66.3487 39.9219Z" fill="#D1D3D4" />
  <path d="M66.3487 56.0376H56.571C56.0917 56.0376 55.7031 56.4399 55.7031 56.9362V67.06C55.7031 67.5562 56.0917 67.959 56.571 67.959H66.3487C66.8281 67.959 67.2171 67.5567 67.2171 67.06V56.9362C67.2171 56.4399 66.8285 56.0376 66.3487 56.0376Z" fill="#D1D3D4" />
  <path d="M0 14.4385H73.1156V17.7688H0V14.4385Z" fill="#F79219" />
  <path d="M56.4327 63.7593C58.145 52.3849 50.6275 41.7269 39.6419 39.954C28.6563 38.1811 18.3626 45.9646 16.6503 57.3389C14.9379 68.7133 22.4554 79.3713 33.441 81.1443C44.4266 82.9172 54.7204 75.1337 56.4327 63.7593Z" fill="#FFA91A" />
  <path d="M48.6134 43.876C51.1301 47.3559 52.6214 51.6767 52.6214 56.3585C52.6214 67.8709 43.6074 77.2038 32.4885 77.2038C27.9667 77.2038 23.7932 75.6602 20.4326 73.0541C24.1044 78.1311 29.9605 81.4168 36.5575 81.4168C47.6763 81.4168 56.6903 72.0842 56.6903 60.5715C56.6903 53.741 53.5169 47.6782 48.6134 43.876Z" fill="#F79219" />
  <path d="M39.8207 73.0323L37.7032 72.4623C36.9505 72.2596 36.1652 72.2596 35.4128 72.4623L33.2953 73.0323C30.2375 73.8551 27.292 71.2856 27.292 67.7948C27.292 63.3337 31.4407 57.5151 36.5582 57.5151C41.6758 57.5151 45.8245 63.3337 45.8245 67.7948C45.8241 71.2856 42.8786 73.8555 39.8207 73.0323Z" fill="white" />
  <path d="M28.2701 55.5287C29.3524 57.5168 29.4489 59.4383 28.0972 60.3344C26.745 61.2309 24.4221 60.6394 23.3393 58.6513C22.257 56.6632 22.8246 54.0318 24.1767 53.1353C25.5284 52.2388 27.1873 53.5406 28.2701 55.5287Z" fill="white" />
  <path d="M35.2888 51.5183C35.7905 53.7407 35.3633 55.6133 33.8228 56.0818C32.2823 56.5503 30.2124 55.3087 29.7107 53.0864C29.209 50.8641 30.4663 48.5027 32.0064 48.0342C33.5469 47.5653 34.7875 49.296 35.2888 51.5183Z" fill="white" />
  <path d="M44.8461 55.5287C43.7637 57.5168 43.6673 59.4383 45.019 60.3344C46.3711 61.2309 48.6941 60.6394 49.7768 58.6513C50.8592 56.6632 50.2916 54.0318 48.9394 53.1353C47.5877 52.2388 45.9288 53.5406 44.8461 55.5287Z" fill="white" />
  <path d="M37.8277 51.5183C37.326 53.7407 37.7532 55.6133 39.2937 56.0818C40.8342 56.5503 42.9041 55.3087 43.4058 53.0864C43.9075 50.8641 42.6502 48.5027 41.1101 48.0342C39.5696 47.5653 38.329 49.296 37.8277 51.5183Z" fill="white" />
</svg>