<svg width="75" height="92" viewBox="0 0 75 92" fill="none" xmlns="http://www.w3.org/2000/svg">
  <path d="M75 8.88529V90.1489C75 91.1707 74.0482 92 72.8754 92H2.12465C0.951841 92 0 91.1707 0 90.1489V8.88529C0 7.86348 0.951841 7.03418 2.12465 7.03418H72.8754C74.0482 7.03418 75 7.86348 75 8.88529Z" fill="#FAD207" />
  <path d="M3.39941 16.1694V87.7277C3.39941 88.4516 4.07293 89.0384 4.90388 89.0384H47.7744C48.3378 89.0384 48.8783 88.8433 49.2767 88.4962L65.6516 74.2296V15.1793H7.63298L7.27477 12.9263L4.34488 14.6297C3.75402 14.973 3.39941 15.5508 3.39941 16.1694Z" fill="#FAA515" />
  <path d="M68.6262 14.4385V71.6377L55.8783 75.7102L51.629 86.4466H8.49867C7.32523 86.4466 6.37402 85.6178 6.37402 84.5955V14.4385C6.37402 13.4161 7.32523 12.5874 8.49867 12.5874H66.5015C67.675 12.5874 68.6262 13.4161 68.6262 14.4385Z" fill="#F5F5F5" />
  <path d="M68.6261 71.6377L51.6289 86.4466V73.4888C51.6289 72.4664 52.5801 71.6377 53.7536 71.6377H68.6261Z" fill="#E6E6E6" />
  <path d="M58.8821 12.5874V16.1841C58.8821 18.7349 56.4982 20.8119 53.5704 20.8119H21.4288C18.501 20.8119 16.1172 18.7349 16.1172 16.1841V12.5874H58.8821Z" fill="#E6E6E6" />
  <path d="M16.1172 7.03418H58.8821V12.5875H16.1172V7.03418Z" fill="#FAA515" />
  <path d="M55.6948 7.03029V16.1835C55.6948 17.2058 54.7436 18.0346 53.5701 18.0346H21.4293C20.2559 18.0346 19.3047 17.2058 19.3047 16.1835V7.03029L31.098 7.03047C30.9412 6.44349 30.8878 5.82189 30.9558 5.18103C31.2494 2.41455 33.8521 0.205256 37.0334 0.0140368C40.8743 -0.216796 44.0723 2.42955 44.0723 5.72655C44.0723 6.17508 44.013 6.61175 43.9011 7.03047L55.6948 7.03029Z" fill="#50758D" />
  <path d="M57.7905 32.8812H35.2693C34.389 32.8812 33.6758 32.2597 33.6758 31.4928C33.6758 30.7259 34.389 30.1045 35.2693 30.1045H57.7905C58.6708 30.1045 59.384 30.7259 59.384 31.4928C59.384 32.2597 58.6708 32.8812 57.7905 32.8812Z" fill="#50758D" />
  <path d="M57.7905 49.1468H35.2693C34.389 49.1468 33.6758 48.5254 33.6758 47.7584C33.6758 46.9915 34.389 46.3701 35.2693 46.3701H57.7905C58.6708 46.3701 59.384 46.9915 59.384 47.7584C59.384 48.5254 58.6708 49.1468 57.7905 49.1468Z" fill="#50758D" />
  <path d="M57.7901 66.0159H54.072C53.1918 66.0159 52.4785 65.3945 52.4785 64.6276C52.4785 63.8607 53.1918 63.2393 54.072 63.2393H57.7901C58.6704 63.2393 59.3836 63.8607 59.3836 64.6276C59.3836 65.3945 58.6704 66.0159 57.7901 66.0159Z" fill="#50758D" />
  <path d="M46.6361 66.0159H35.2693C34.389 66.0159 33.6758 65.3945 33.6758 64.6276C33.6758 63.8607 34.389 63.2393 35.2693 63.2393H46.6361C47.5164 63.2393 48.2296 63.8607 48.2296 64.6276C48.2296 65.3945 47.5164 66.0159 46.6361 66.0159Z" fill="#50758D" />
  <path d="M21.8712 38.4531H20.5483C20.4973 38.4531 20.45 38.435 20.4141 38.4053C20.3895 38.3838 19.7923 37.8494 19.7923 36.8035C19.7923 36.7112 19.7923 36.6254 19.7961 36.5446C19.6279 36.7606 19.42 36.9652 19.1724 37.1071C19.0855 37.1566 18.9683 37.1351 18.9116 37.0592C18.8549 36.9833 18.8795 36.8811 18.9664 36.8316C19.4824 36.538 19.8112 35.8699 19.9341 35.5779C19.9662 35.4756 19.9946 35.4245 20.0021 35.4113C20.0456 35.3354 20.1495 35.2991 20.2402 35.3321C20.331 35.3634 20.3801 35.4509 20.3518 35.5334C20.348 35.5433 20.331 35.596 20.2969 35.6769C20.2459 35.8402 20.1722 36.1899 20.1722 36.8052C20.1722 37.5409 20.5105 37.9846 20.6371 38.1249H21.6841C21.6841 38.0242 21.3477 37.9599 21.1172 37.9599C21.0227 37.9599 20.9433 37.8989 20.9301 37.818C20.8904 37.5722 20.5596 35.3964 21.3818 34.8587C22.0508 34.4199 22.0621 33.5143 22.0621 33.506C22.0621 32.7868 21.756 32.1352 21.5311 31.6585C21.4007 31.3797 21.3062 31.1784 21.3062 31.0316C21.3062 30.6407 21.8013 30.5367 22.0621 30.5367C22.7047 30.5367 22.9296 30.1903 22.9976 30.0402C23.0033 30.0254 23.0071 30.0089 23.0071 29.9907C23.0071 29.9214 22.9485 29.8621 22.871 29.8522C22.5837 29.8159 22.1887 29.7251 21.9279 29.4975C21.9015 29.4744 21.8845 29.4447 21.8769 29.4134C21.8693 29.3853 21.6974 28.7205 20.7392 28.7205C19.6997 28.7205 19.0383 29.4794 19.0383 29.8753C19.0383 30.0716 19.0704 30.1078 19.0723 30.1095C19.078 30.1128 19.1025 30.121 19.1214 30.1276C19.1819 30.1474 19.2726 30.1771 19.3614 30.2547C19.4503 30.3322 19.4975 30.4196 19.5448 30.4988C19.6374 30.6605 19.6733 30.7001 19.7961 30.7001C19.9341 30.7001 20.125 30.6737 20.2497 30.545C20.3971 30.3932 20.4387 30.1128 20.3669 29.7367C20.3499 29.6476 20.4198 29.5618 20.5218 29.547C20.6258 29.5305 20.7222 29.5932 20.7392 29.6823C20.8318 30.1639 20.7638 30.5252 20.5389 30.7578C20.3669 30.9359 20.1098 31.03 19.798 31.03C19.4295 31.03 19.2972 30.799 19.2084 30.6456C19.1724 30.5829 19.1384 30.5235 19.0969 30.4873C19.0666 30.4609 19.0364 30.451 18.9929 30.4361C18.7793 30.3668 18.6641 30.2563 18.6641 29.8753C18.6641 29.2847 19.4937 28.3906 20.743 28.3906C21.7087 28.3906 22.1302 28.9531 22.236 29.293C22.3872 29.4051 22.631 29.486 22.9296 29.5255C23.1904 29.5585 23.3888 29.7581 23.3888 29.9907C23.3888 30.0501 23.3775 30.1062 23.3529 30.159C23.2792 30.3239 22.9674 30.865 22.0659 30.865C22.0621 30.865 21.6879 30.8749 21.6879 31.03C21.6879 31.1124 21.7843 31.3153 21.8845 31.5314C22.1075 32.0049 22.4439 32.7192 22.4439 33.5044C22.4439 33.5489 22.4344 34.5832 21.6123 35.121C21.1512 35.4228 21.1663 36.7672 21.2873 37.6349C21.6766 37.6646 22.0659 37.8048 22.0659 38.1232V38.2882C22.0659 38.3789 21.9809 38.4531 21.8769 38.4531H21.8712Z" fill="#FAD207" />
  <path d="M15.0473 36.7949H15.0435C14.9396 36.7933 14.8565 36.7172 14.8584 36.6262C14.8735 35.9114 14.9717 35.4448 15.4589 34.8756C15.7176 34.5729 16.0159 34.4256 16.3312 34.2701C16.7731 34.0517 17.2735 33.8035 17.9136 33.0556C18.5253 32.3409 18.852 31.6774 19.0182 31.2472C19.0522 31.1612 19.1579 31.1149 19.258 31.143C19.3562 31.1728 19.409 31.2671 19.3769 31.3531C19.2013 31.8065 18.8577 32.5047 18.2157 33.2542C17.5284 34.0566 16.9676 34.3346 16.5182 34.558C16.2142 34.7085 15.9725 34.8277 15.761 35.0742C15.3305 35.5772 15.2512 35.9627 15.2361 36.6328C15.2342 36.7238 15.1492 36.7949 15.0473 36.7949Z" fill="#FAD207" />
  <path d="M19.5888 38.4531H16.5633C16.204 38.4531 15.128 38.4531 14.8803 37.5548C13.4848 36.6448 13.3524 35.2525 13.9424 34.389C14.3603 33.779 15.1507 33.494 15.701 33.4343C15.9071 33.4111 16.1832 33.4094 16.3193 33.5288C16.3666 33.5702 16.3855 33.6282 16.3704 33.6846C16.3553 33.7409 16.308 33.7857 16.2456 33.8039C16.2361 33.8072 15.1942 34.1255 14.852 35.0255C14.5286 35.8741 15.1299 36.1476 15.1356 36.1509C15.2283 36.1923 15.2661 36.2918 15.2207 36.373C15.1753 36.4542 15.06 36.4874 14.9673 36.4476C14.9579 36.4443 14.0691 36.0382 14.4946 34.921C14.695 34.3956 15.0827 34.0442 15.4325 33.8205C15.0392 33.9232 14.5551 34.1437 14.2696 34.5614C13.7571 35.3089 13.897 36.5321 15.1621 37.3244C15.2018 37.3492 15.2283 37.3857 15.2377 37.4271C15.3436 37.9078 15.7521 38.1216 16.5652 38.1216H19.4016C19.3997 38.0984 19.3713 37.9559 19.0234 37.9559C18.3464 37.9559 18.1082 37.5498 18.0987 37.5332C18.0685 37.4802 18.0723 37.4172 18.1101 37.3675C18.1139 37.3625 18.4561 36.9001 18.4561 36.2984C18.4561 35.7481 17.8094 35.4547 17.8037 35.4514C17.7111 35.41 17.6733 35.3105 17.7205 35.2293C17.7678 35.1481 17.8813 35.115 17.9739 35.1547C18.0099 35.1697 18.8343 35.5409 18.8343 36.2967C18.8343 36.8288 18.6093 37.2597 18.492 37.447C18.5696 37.5183 18.7322 37.6227 19.0234 37.6227C19.6209 37.6227 19.7798 37.9476 19.7798 38.12V38.2857C19.7798 38.3769 19.6947 38.4515 19.5907 38.4515L19.5888 38.4531Z" fill="#FAD207" />
  <path d="M22.7569 52.6484H21.2922C21.2357 52.6484 21.1834 52.6284 21.1436 52.5955C21.1164 52.5717 20.4552 51.98 20.4552 50.8221C20.4552 50.7198 20.4552 50.6249 20.4594 50.5354C20.2732 50.7746 20.043 51.0011 19.7689 51.1582C19.6727 51.2129 19.5429 51.1892 19.4802 51.1052C19.4174 51.0212 19.4446 50.9079 19.5408 50.8532C20.1121 50.5281 20.4761 49.7884 20.6121 49.4651C20.6477 49.3519 20.6791 49.2953 20.6875 49.2807C20.7356 49.1967 20.8507 49.1565 20.9511 49.193C21.0516 49.2277 21.106 49.3245 21.0746 49.4158C21.0704 49.4268 21.0516 49.4852 21.0139 49.5747C20.9574 49.7555 20.8758 50.1427 20.8758 50.8239C20.8758 51.6385 21.2503 52.1298 21.3905 52.285H22.5497C22.5497 52.1736 22.1773 52.1024 21.922 52.1024C21.8174 52.1024 21.7295 52.0348 21.7148 51.9453C21.6709 51.6732 21.3047 49.2642 22.2149 48.6689C22.9556 48.1831 22.9682 47.1804 22.9682 47.1713C22.9682 46.375 22.6292 45.6536 22.3802 45.1258C22.2358 44.8171 22.1312 44.5943 22.1312 44.4318C22.1312 43.9989 22.6794 43.8839 22.9682 43.8839C23.6796 43.8839 23.9286 43.5003 24.0039 43.3341C24.0102 43.3177 24.0144 43.2994 24.0144 43.2794C24.0144 43.2026 23.9495 43.1369 23.8637 43.1259C23.5457 43.0858 23.1084 42.9853 22.8196 42.7333C22.7903 42.7077 22.7715 42.6748 22.7631 42.6401C22.7548 42.6091 22.5644 41.8731 21.5035 41.8731C20.3527 41.8731 19.6203 42.7132 19.6203 43.1515C19.6203 43.3688 19.6559 43.409 19.658 43.4109C19.6643 43.4145 19.6915 43.4236 19.7124 43.4309C19.7794 43.4529 19.8798 43.4857 19.9782 43.5716C20.0765 43.6574 20.1288 43.7542 20.1811 43.8419C20.2836 44.0208 20.3234 44.0647 20.4594 44.0647C20.6121 44.0647 20.8235 44.0355 20.9616 43.893C21.1248 43.725 21.1708 43.4145 21.0913 42.9981C21.0725 42.8995 21.1499 42.8045 21.2629 42.7881C21.378 42.7698 21.4847 42.8392 21.5035 42.9378C21.606 43.4711 21.5307 43.8711 21.2817 44.1286C21.0913 44.3258 20.8067 44.4299 20.4615 44.4299C20.0535 44.4299 19.907 44.1743 19.8087 44.0044C19.7689 43.935 19.7312 43.8693 19.6852 43.8291C19.6517 43.7999 19.6183 43.7889 19.5701 43.7725C19.3337 43.6958 19.2061 43.5734 19.2061 43.1515C19.2061 42.4977 20.1246 41.5078 21.5077 41.5078C22.5769 41.5078 23.0435 42.1306 23.1607 42.5068C23.3281 42.631 23.598 42.7205 23.9286 42.7643C24.2174 42.8009 24.4371 43.0218 24.4371 43.2794C24.4371 43.3451 24.4245 43.4072 24.3973 43.4656C24.3157 43.6483 23.9704 44.2473 22.9724 44.2473C22.9682 44.2473 22.5539 44.2583 22.5539 44.4299C22.5539 44.5213 22.6606 44.7459 22.7715 44.9852C23.0184 45.5093 23.3909 46.3001 23.3909 47.1694C23.3909 47.2188 23.3804 48.3639 22.4702 48.9592C21.9597 49.2935 21.9764 50.7819 22.1103 51.7426C22.5413 51.7755 22.9724 51.9307 22.9724 52.2832V52.4658C22.9724 52.5663 22.8782 52.6484 22.7631 52.6484H22.7569Z" fill="#FAD207" />
  <path d="M15.2013 50.813H15.1971C15.0821 50.8112 14.9901 50.7269 14.9922 50.6261C15.0089 49.8348 15.1177 49.3182 15.657 48.6881C15.9434 48.3529 16.2737 48.1898 16.6228 48.0176C17.112 47.7758 17.666 47.5011 18.3747 46.6731C19.052 45.8817 19.4137 45.1472 19.5976 44.6709C19.6353 44.5756 19.7523 44.5243 19.8631 44.5555C19.9718 44.5885 20.0304 44.6929 19.9948 44.7881C19.8004 45.29 19.4199 46.0631 18.7092 46.8929C17.9482 47.7813 17.3273 48.0891 16.8298 48.3364C16.4932 48.5031 16.2256 48.635 15.9915 48.9079C15.5149 49.4648 15.4271 49.8916 15.4103 50.6335C15.4082 50.7342 15.3142 50.813 15.2013 50.813Z" fill="#FAD207" />
  <path d="M20.2292 52.6484H16.8796C16.4818 52.6484 15.2906 52.6484 15.0163 51.6538C13.4713 50.6464 13.3247 49.1049 13.9779 48.1489C14.4406 47.4736 15.3157 47.1579 15.9249 47.0919C16.1531 47.0662 16.4588 47.0643 16.6095 47.1965C16.6618 47.2423 16.6828 47.3066 16.666 47.369C16.6493 47.4313 16.5969 47.4809 16.5278 47.5011C16.5174 47.5048 15.3638 47.8571 14.9849 48.8535C14.6269 49.7931 15.2926 50.0959 15.2989 50.0995C15.4015 50.1454 15.4434 50.2555 15.3931 50.3454C15.3429 50.4354 15.2152 50.4721 15.1126 50.428C15.1021 50.4243 14.1182 49.9747 14.5892 48.7379C14.8111 48.1562 15.2403 47.7672 15.6276 47.5194C15.1922 47.6332 14.6562 47.8773 14.3401 48.3397C13.7727 49.1673 13.9277 50.5216 15.3282 51.3988C15.3722 51.4263 15.4015 51.4667 15.412 51.5125C15.5292 52.0447 15.9814 52.2814 16.8817 52.2814H20.022C20.0199 52.2557 19.9885 52.0979 19.6033 52.0979C18.8538 52.0979 18.59 51.6483 18.5795 51.63C18.546 51.5713 18.5502 51.5015 18.5921 51.4465C18.5963 51.441 18.9752 50.929 18.9752 50.2629C18.9752 49.6536 18.2592 49.3288 18.2529 49.3251C18.1503 49.2793 18.1085 49.1692 18.1608 49.0792C18.2131 48.9893 18.3388 48.9526 18.4413 48.9967C18.4811 49.0132 19.3939 49.4242 19.3939 50.261C19.3939 50.8501 19.1448 51.3272 19.015 51.5346C19.1008 51.6135 19.2809 51.7291 19.6033 51.7291C20.2648 51.7291 20.4407 52.0887 20.4407 52.2796V52.4631C20.4407 52.564 20.3465 52.6466 20.2313 52.6466L20.2292 52.6484Z" fill="#FAD207" />
  <path d="M23.1699 68.8203H21.7053C21.6488 68.8203 21.5965 68.8002 21.5567 68.7674C21.5295 68.7436 20.8683 68.1519 20.8683 66.994C20.8683 66.8917 20.8683 66.7967 20.8725 66.7072C20.6863 66.9465 20.4561 67.173 20.182 67.33C20.0857 67.3848 19.956 67.3611 19.8932 67.2771C19.8305 67.1931 19.8577 67.0798 19.9539 67.025C20.5251 66.6999 20.8892 65.9603 21.0252 65.637C21.0608 65.5238 21.0922 65.4672 21.1006 65.4526C21.1487 65.3685 21.2638 65.3284 21.3642 65.3649C21.4646 65.3996 21.519 65.4964 21.4877 65.5877C21.4835 65.5987 21.4646 65.6571 21.427 65.7466C21.3705 65.9274 21.2889 66.3146 21.2889 66.9958C21.2889 67.8104 21.6634 68.3016 21.8036 68.4569H22.9628C22.9628 68.3455 22.5903 68.2742 22.3351 68.2742C22.2305 68.2742 22.1426 68.2067 22.1279 68.1172C22.084 67.8451 21.7178 65.4361 22.628 64.8407C23.3687 64.3549 23.3813 63.3523 23.3813 63.3431C23.3813 62.5469 23.0423 61.8255 22.7933 61.2977C22.6489 60.989 22.5443 60.7662 22.5443 60.6036C22.5443 60.1708 23.0925 60.0557 23.3813 60.0557C24.0927 60.0557 24.3417 59.6722 24.417 59.506C24.4233 59.4896 24.4275 59.4713 24.4275 59.4512C24.4275 59.3745 24.3626 59.3088 24.2768 59.2978C23.9588 59.2576 23.5215 59.1572 23.2327 58.9052C23.2034 58.8796 23.1846 58.8467 23.1762 58.812C23.1678 58.781 22.9774 58.045 21.9166 58.045C20.7658 58.045 20.0334 58.8851 20.0334 59.3234C20.0334 59.5407 20.069 59.5809 20.0711 59.5827C20.0774 59.5864 20.1046 59.5955 20.1255 59.6028C20.1925 59.6247 20.2929 59.6576 20.3912 59.7434C20.4896 59.8293 20.5419 59.9261 20.5942 60.0137C20.6967 60.1927 20.7365 60.2366 20.8725 60.2366C21.0252 60.2366 21.2366 60.2073 21.3747 60.0649C21.5379 59.8969 21.5839 59.5864 21.5044 59.17C21.4856 59.0714 21.563 58.9764 21.676 58.9599C21.7911 58.9417 21.8978 59.0111 21.9166 59.1097C22.0191 59.643 21.9438 60.043 21.6948 60.3005C21.5044 60.4977 21.2198 60.6018 20.8746 60.6018C20.4666 60.6018 20.3201 60.3461 20.2218 60.1763C20.182 60.1069 20.1443 60.0411 20.0983 60.001C20.0648 59.9717 20.0313 59.9608 19.9832 59.9443C19.7468 59.8676 19.6191 59.7453 19.6191 59.3234C19.6191 58.6696 20.5377 57.6797 21.9208 57.6797C22.99 57.6797 23.4566 58.3025 23.5738 58.6787C23.7412 58.8029 24.0111 58.8924 24.3417 58.9362C24.6304 58.9727 24.8501 59.1937 24.8501 59.4512C24.8501 59.517 24.8376 59.5791 24.8104 59.6375C24.7288 59.8201 24.3835 60.4192 23.3855 60.4192C23.3813 60.4192 22.967 60.4301 22.967 60.6018C22.967 60.6931 23.0737 60.9178 23.1846 61.157C23.4315 61.6812 23.8039 62.472 23.8039 63.3413C23.8039 63.3906 23.7935 64.5357 22.8833 65.1311C22.3727 65.4653 22.3895 66.9538 22.5234 67.9145C22.9544 67.9473 23.3855 68.1026 23.3855 68.4551V68.6377C23.3855 68.7381 23.2913 68.8203 23.1762 68.8203H23.1699Z" fill="#FAD207" />
  <path d="M15.6144 66.9844H15.6102C15.4952 66.9825 15.4032 66.8983 15.4053 66.7975C15.422 66.0062 15.5307 65.4896 16.0701 64.8595C16.3565 64.5242 16.6868 64.3612 17.0359 64.189C17.5251 63.9472 18.0791 63.6724 18.7878 62.8445C19.4651 62.0531 19.8268 61.3186 20.0107 60.8423C20.0484 60.747 20.1654 60.6957 20.2762 60.7269C20.3849 60.7598 20.4435 60.8643 20.4079 60.9595C20.2135 61.4614 19.833 62.2345 19.1223 63.0643C18.3613 63.9527 17.7404 64.2605 17.2429 64.5078C16.9063 64.6744 16.6387 64.8063 16.4046 65.0793C15.9279 65.6362 15.8401 66.063 15.8234 66.8049C15.8213 66.9056 15.7272 66.9844 15.6144 66.9844Z" fill="#FAD207" />
  <path d="M20.6423 68.8203H17.2926C16.8949 68.8203 15.7036 68.8203 15.4294 67.8257C13.8843 66.8183 13.7378 65.2768 14.391 64.3207C14.8537 63.6454 15.7288 63.3298 16.338 63.2637C16.5662 63.238 16.8718 63.2362 17.0226 63.3683C17.0749 63.4142 17.0959 63.4784 17.0791 63.5408C17.0624 63.6032 17.01 63.6528 16.9409 63.673C16.9305 63.6766 15.7769 64.029 15.398 65.0254C15.04 65.965 15.7057 66.2677 15.712 66.2714C15.8146 66.3173 15.8565 66.4274 15.8062 66.5173C15.756 66.6072 15.6283 66.6439 15.5257 66.5999C15.5152 66.5962 14.5313 66.1466 15.0023 64.9098C15.2242 64.3281 15.6534 63.939 16.0407 63.6913C15.6052 63.8051 15.0693 64.0491 14.7532 64.5116C14.1858 65.3392 14.3407 66.6935 15.7413 67.5706C15.7853 67.5982 15.8146 67.6385 15.8251 67.6844C15.9423 68.2166 16.3945 68.4533 17.2947 68.4533H20.4351C20.433 68.4276 20.4016 68.2698 20.0164 68.2698C19.2669 68.2698 19.0031 67.8202 18.9926 67.8019C18.9591 67.7431 18.9633 67.6734 19.0052 67.6183C19.0094 67.6128 19.3883 67.1009 19.3883 66.4347C19.3883 65.8255 18.6723 65.5007 18.666 65.497C18.5634 65.4511 18.5216 65.341 18.5739 65.2511C18.6262 65.1612 18.7518 65.1245 18.8544 65.1685C18.8942 65.185 19.807 65.5961 19.807 66.4329C19.807 67.022 19.5579 67.4991 19.4281 67.7064C19.5139 67.7853 19.6939 67.9009 20.0164 67.9009C20.6779 67.9009 20.8538 68.2606 20.8538 68.4515V68.635C20.8538 68.7359 20.7596 68.8185 20.6444 68.8185L20.6423 68.8203Z" fill="#FAD207" />
</svg>