<svg width="47" height="45" viewBox="0 0 47 45" fill="none" xmlns="http://www.w3.org/2000/svg">
  <mask id="mask0_1826_497" style="mask-type:luminance" maskUnits="userSpaceOnUse" x="0" y="0" width="47" height="45">
    <path d="M23.0811 0.000488281L46.6451 22.73L23.5642 44.1581L0.000181165 21.4286L23.0811 0.000488281Z" fill="white" />
  </mask>
  <g mask="url(#mask0_1826_497)">
    <path d="M25.9381 5.00834C25.7057 4.78417 25.386 4.66579 24.9487 4.61941C24.8991 4.61608 24.251 4.57272 23.8282 4.54381L23.4602 4.51844C21.3231 4.35966 19.0006 5.54333 17.5436 7.53611C17.072 8.1791 16.6465 8.90651 16.2794 9.6972C14.4248 13.6841 14.0445 18.3389 14.0513 21.5418C14.0398 24.7482 14.4133 29.4545 16.261 33.693C16.628 34.5337 17.0512 35.3185 17.5219 36.0259C18.9758 38.2165 21.2966 39.7173 23.4329 39.8484L23.7868 39.872C24.1969 39.9003 24.8374 39.9446 24.931 39.9504C26.3054 39.9905 26.5226 39.1314 26.4746 36.5351L26.4656 35.8824C26.4529 34.2221 26.4271 31.4384 25.0318 30.3611C24.6526 30.0681 24.0608 29.9441 23.435 29.812C22.8131 29.6813 22.1707 29.5461 21.5678 29.2285C19.9492 28.3757 18.9333 26.9301 18.7047 25.1577C18.5688 24.0976 18.5048 22.9497 18.5187 21.8394C18.5063 20.7424 18.5722 19.6037 18.7101 18.5637C18.9412 16.823 19.9588 15.5161 21.5791 14.8831C22.1826 14.6477 22.8251 14.6 23.4466 14.5544C24.0732 14.5077 24.6643 14.4644 25.0433 14.2225C26.4423 13.3315 26.4695 10.5554 26.4855 8.89578L26.4962 8.24572C26.5312 6.47076 26.4414 5.49384 25.9381 5.00834ZM17.8142 38.6116C17.1888 38.0083 16.66 37.3611 16.243 36.7336C15.7227 35.9513 15.2553 35.0852 14.853 34.1624C12.9036 29.692 12.509 24.7754 12.522 21.4379C12.5135 18.1031 12.9167 13.2405 14.872 9.03523C15.2758 8.16728 15.7443 7.36649 16.2655 6.654C17.6466 4.7663 20.265 2.83343 23.4719 3.07407L23.8284 3.09774C24.2779 3.1278 24.9776 3.17517 25.005 3.17815C28.1221 3.50221 28.0649 6.43585 28.0255 8.37551L28.0157 9.01238C27.997 10.9403 27.9656 14.1651 25.9577 15.4435C25.2707 15.8811 24.4215 15.944 23.6726 15.9993C23.1417 16.0385 22.6388 16.0754 22.2452 16.2295C21.0928 16.6803 20.3945 17.5844 20.2277 18.844C20.0989 19.8212 20.0369 20.8933 20.0487 21.9439C20.0353 23.0067 20.0956 24.0877 20.2234 25.0837C20.3883 26.3665 21.085 27.3658 22.2367 27.9735C22.6307 28.1799 23.1318 28.2856 23.6623 28.3973C24.4121 28.5551 25.2603 28.7328 25.9466 29.2647C27.9582 30.8214 27.9796 34.0455 27.9952 35.9749L28.0051 36.6132C28.0409 38.5585 28.0945 41.4992 24.9804 41.3998C24.9333 41.3966 24.2285 41.349 23.7841 41.3179L23.4415 41.2949C21.2059 41.1571 19.2562 40.0026 17.8142 38.6116Z" fill="#15FF00" />
  </g>
</svg>