<svg width="15" height="22" viewBox="0 0 15 22" fill="none" xmlns="http://www.w3.org/2000/svg">
  <mask id="mask0_245_1214" style="mask-type:luminance" maskUnits="userSpaceOnUse" x="2" y="0" width="10" height="10">
    <path d="M2.76831 0.495361H11.3344V9.07313H2.76831V0.495361Z" fill="white" />
  </mask>
  <g mask="url(#mask0_245_1214)">
    <path d="M7.03693 8.96342H7.03241C6.4699 8.96342 5.92999 8.85654 5.41179 8.64007C4.89269 8.42451 4.43689 8.11822 4.04259 7.71942C3.64467 7.32242 3.33809 6.86524 3.12286 6.34698C2.90671 5.82962 2.79909 5.2898 2.79729 4.72933C2.79186 3.59042 3.28474 2.47037 4.15111 1.6593C4.96504 0.895833 6.02405 0.49434 7.05773 0.55901C8.07785 0.50422 9.1242 0.908408 9.93089 1.67008C10.7918 2.48294 11.282 3.60209 11.2766 4.74011C11.2757 5.30058 11.1662 5.8395 10.9501 6.35686C10.734 6.87422 10.4265 7.3305 10.0277 7.72661C9.63335 8.12361 9.17575 8.429 8.65755 8.64366C8.13844 8.85833 7.59854 8.96432 7.03693 8.96342Z" fill="#15FF00" />
  </g>
  <mask id="mask1_245_1214" style="mask-type:luminance" maskUnits="userSpaceOnUse" x="0" y="9" width="15" height="13">
    <path d="M0 9.53296H14.0574V21.1781H0V9.53296Z" fill="white" />
  </mask>
  <g mask="url(#mask1_245_1214)">
    <path d="M7.01517 21.1771C6.07283 21.1762 5.14315 21.0684 4.22522 20.8537C3.3082 20.639 2.42735 20.3229 1.58358 19.9061C0.490207 19.3645 4.27328e-05 18.9271 0.0398346 18.531L0.56346 13.3672C0.565269 12.5508 0.870038 11.7774 1.44431 11.1289C2.00049 10.5011 2.79 10.0331 3.66813 9.81129C4.05972 9.71518 4.45674 9.66758 4.86008 9.67027H9.3629C10.4554 9.73584 11.4683 10.1499 12.2171 10.8352C12.965 11.5206 13.3828 12.4214 13.3855 13.3654L14.0077 18.4888C14.0556 18.8876 13.5772 19.3259 12.501 19.8711C11.6555 20.2968 10.7719 20.6202 9.85125 20.8402C8.92971 21.0612 7.9955 21.1735 7.04773 21.1762L7.01517 21.1771Z" fill="#15FF00" />
  </g>
</svg>