<svg width="305" height="91" viewBox="0 0 305 91" fill="none" xmlns="http://www.w3.org/2000/svg">
<rect width="5" height="21" rx="2.5" transform="matrix(-1 0 0 1 5 69)" fill="#D9D9D9"/>
<rect width="5" height="22" rx="2.5" transform="matrix(-1 0 0 1 25 68)" fill="#D9D9D9"/>
<rect width="4" height="22" rx="2" transform="matrix(-1 0 0 1 45 69)" fill="#D9D9D9"/>
<rect width="6" height="22" rx="3" transform="matrix(-1 0 0 1 65 68)" fill="#D9D9D9"/>
<rect width="5" height="19" rx="2.5" transform="matrix(-1 0 0 1 73 71)" fill="#D9D9D9"/>
<rect width="4" height="19" rx="2" transform="matrix(-1 0 0 1 81 71)" fill="#D9D9D9"/>
<rect width="4" height="19" rx="2" transform="matrix(-1 0 0 1 90 71)" fill="#D9D9D9"/>
<rect width="5" height="19" rx="2.5" transform="matrix(-1 0 0 1 99 71)" fill="#D9D9D9"/>
<rect width="5" height="25" rx="2.5" transform="matrix(-1 0 0 1 55 66)" fill="#D9D9D9"/>
<rect width="5" height="31" rx="2.5" transform="matrix(-1 0 0 1 15 60)" fill="#D9D9D9"/>
<rect width="5" height="31" rx="2.5" transform="matrix(-1 0 0 1 35 60)" fill="#D9D9D9"/>
<rect width="4" height="21" rx="2" transform="matrix(-1 0 0 1 107 69)" fill="#D9D9D9"/>
<rect width="5" height="40" rx="2.5" transform="matrix(-1 0 0 1 128 50)" fill="#D9D9D9"/>
<rect width="4" height="35" rx="2" transform="matrix(-1 0 0 1 147 56)" fill="#D9D9D9"/>
<rect width="5" height="35" rx="2.5" transform="matrix(-1 0 0 1 167 55)" fill="#D9D9D9"/>
<rect width="4" height="30" rx="2" transform="matrix(-1 0 0 1 175 60)" fill="#D9D9D9"/>
<rect width="5" height="34" rx="2.5" transform="matrix(-1 0 0 1 184 56)" fill="#D9D9D9"/>
<rect width="5" height="28" rx="2.5" transform="matrix(-1 0 0 1 193 62)" fill="#D9D9D9"/>
<rect width="5" height="32" rx="2.5" transform="matrix(-1 0 0 1 201 58)" fill="#D9D9D9"/>
<rect width="5" height="38" rx="2.5" transform="matrix(-1 0 0 1 157 53)" fill="#D9D9D9"/>
<rect width="4" height="29" rx="2" transform="matrix(-1 0 0 1 117 62)" fill="#D9D9D9"/>
<rect width="5" height="41" rx="2.5" transform="matrix(-1 0 0 1 138 50)" fill="#D9D9D9"/>
<rect width="5" height="63" rx="2.5" transform="matrix(-1 0 0 1 211 27)" fill="#D9D9D9"/>
<rect width="5" height="50" rx="2.5" transform="matrix(-1 0 0 1 231 40)" fill="#D9D9D9"/>
<rect width="4" height="57" rx="2" transform="matrix(-1 0 0 1 251 34)" fill="#D9D9D9"/>
<rect width="5" height="42" rx="2.5" transform="matrix(-1 0 0 1 270 48)" fill="#D9D9D9"/>
<rect width="5" height="72" rx="2.5" transform="matrix(-1 0 0 1 279 18)" fill="#D9D9D9"/>
<rect width="4" height="61" rx="2" transform="matrix(-1 0 0 1 287 29)" fill="#D9D9D9"/>
<rect width="4" height="78" rx="2" transform="matrix(-1 0 0 1 296 12)" fill="#D9D9D9"/>
<rect width="5" height="66" rx="2.5" transform="matrix(-1 0 0 1 305 24)" fill="#D9D9D9"/>
<rect width="5" height="91" rx="2.5" transform="matrix(-1 0 0 1 261 0)" fill="#D9D9D9"/>
<rect width="5" height="79" rx="2.5" transform="matrix(-1 0 0 1 221 12)" fill="#D9D9D9"/>
<rect width="5" height="75" rx="2.5" transform="matrix(-1 0 0 1 241 15)" fill="#D9D9D9"/>
</svg>
